<?xml version="1.0" encoding="utf-8"?>
<svg version="1.0" width="2000.000000pt" height="647.000000pt" viewBox="0 0 2000.000000 647.000000" preserveAspectRatio="xMidYMid meet" xmlns="http://www.w3.org/2000/svg">
  <path d="M 1625.394 39.516 L 1625.394 42.016 L 1680.194 41.816 L 1734.894 41.516 L 1735.194 39.216 L 1735.494 37.016 L 1680.494 37.016 L 1625.394 37.016 L 1625.394 39.516 Z" fill="#000000" stroke="none"/>
  <path d="M 1625.394 45.016 C 1625.394 45.716 1644.394 46.016 1680.394 46.016 C 1716.394 46.016 1735.394 45.716 1735.394 45.016 C 1735.394 44.316 1716.394 44.016 1680.394 44.016 C 1644.394 44.016 1625.394 44.316 1625.394 45.016 Z" fill="#000000" stroke="none"/>
  <path d="M 1625.394 51.516 L 1625.394 55.016 L 1680.394 55.016 L 1735.394 55.016 L 1735.394 51.516 L 1735.394 48.016 L 1680.394 48.016 L 1625.394 48.016 L 1625.394 51.516 Z" fill="#000000" stroke="none"/>
  <path d="M 1625.394 63.516 L 1625.394 66.016 L 1680.394 66.016 L 1735.394 66.016 L 1735.394 63.516 L 1735.394 61.016 L 1680.394 61.016 L 1625.394 61.016 L 1625.394 63.516 Z" fill="#000000" stroke="none"/>
  <path d="M 1625.394 69.016 C 1625.394 69.716 1644.394 70.016 1680.394 70.016 C 1716.394 70.016 1735.394 69.716 1735.394 69.016 C 1735.394 68.316 1716.394 68.016 1680.394 68.016 C 1644.394 68.016 1625.394 68.316 1625.394 69.016 Z" fill="#000000" stroke="none"/>
  <path d="M 1625.394 80.016 L 1625.394 83.016 L 1680.394 83.016 L 1735.394 83.016 L 1735.394 80.016 L 1735.394 77.016 L 1680.394 77.016 L 1625.394 77.016 L 1625.394 80.016 Z" fill="#000000" stroke="none"/>
  <path d="M 1625.394 87.516 L 1625.394 90.016 L 1680.494 90.016 L 1735.494 90.016 L 1735.194 87.716 L 1734.894 85.516 L 1680.194 85.216 L 1625.394 85.016 L 1625.394 87.516 Z" fill="#000000" stroke="none"/>
  <path d="M 1625.394 94.516 L 1625.394 97.016 L 1680.194 96.816 L 1734.894 96.516 L 1735.194 94.216 L 1735.494 92.016 L 1680.494 92.016 L 1625.394 92.016 L 1625.394 94.516 Z" fill="#000000" stroke="none"/>
  <path d="M 1625.394 104.516 L 1625.394 108.016 L 1680.194 107.816 L 1734.894 107.516 L 1735.194 104.216 L 1735.494 101.016 L 1680.494 101.016 L 1625.394 101.016 L 1625.394 104.516 Z" fill="#000000" stroke="none"/>
  <path d="M 463.794 108.216 C 461.194 109.416 459.394 113.016 459.394 117.016 C 459.394 120.016 459.494 120.016 464.894 120.016 C 469.794 120.016 470.394 119.816 470.394 118.016 C 470.394 115.216 472.994 114.416 476.794 116.016 C 486.394 119.916 488.394 120.316 492.494 119.116 C 495.594 118.116 496.894 117.116 497.994 114.516 C 500.694 107.916 500.194 107.016 493.394 107.016 C 487.994 107.016 487.394 107.216 487.394 109.016 C 487.394 112.316 484.594 112.516 478.794 109.716 C 473.194 106.916 467.494 106.316 463.794 108.216 Z" fill="#000000" stroke="none"/>
  <path d="M 1625.394 113.016 C 1625.394 113.716 1644.394 114.016 1680.394 114.016 C 1716.394 114.016 1735.394 113.716 1735.394 113.016 C 1735.394 112.316 1716.394 112.016 1680.394 112.016 C 1644.394 112.016 1625.394 112.316 1625.394 113.016 Z" fill="#000000" stroke="none"/>
  <path d="M 724.394 118.716 C 720.094 119.416 713.394 122.116 713.394 123.116 C 713.394 124.016 715.094 127.816 715.894 128.816 C 715.994 128.916 717.994 128.316 720.394 127.516 C 726.094 125.516 728.994 125.616 731.394 128.016 C 734.094 130.716 733.194 132.016 728.494 132.016 C 722.894 132.016 714.694 134.816 712.894 137.316 C 710.594 140.616 710.994 147.416 713.694 150.616 C 715.594 152.816 717.094 153.416 721.494 153.716 C 726.094 154.116 727.494 153.816 730.694 151.616 C 732.794 150.216 734.594 149.016 734.794 149.016 C 734.994 149.016 735.494 150.116 735.794 151.516 C 736.294 153.516 737.094 154.016 739.394 154.016 L 742.394 154.016 L 742.394 139.916 L 742.394 125.816 L 738.994 122.416 C 737.094 120.516 734.594 119.016 733.294 119.016 C 731.994 119.016 729.994 118.816 728.894 118.616 C 727.794 118.416 725.794 118.416 724.394 118.716 Z M 732.794 140.216 C 731.894 143.416 730.394 145.116 727.594 146.116 C 723.794 147.616 721.394 146.316 721.394 143.016 C 721.394 139.416 723.494 138.116 729.194 138.016 C 733.194 138.016 733.494 138.216 732.794 140.216 Z" fill="#000000" stroke="none"/>
  <path d="M 1625.394 120.516 L 1625.394 123.016 L 1680.494 123.016 L 1735.494 123.016 L 1735.194 120.716 L 1734.894 118.516 L 1680.194 118.216 L 1625.394 118.016 L 1625.394 120.516 Z" fill="#000000" stroke="none"/>
  <path d="M 386.894 123.616 C 374.894 126.616 368.494 133.816 368.394 144.416 C 368.394 151.516 371.494 157.416 377.094 160.616 C 380.494 162.616 384.194 163.616 392.694 164.716 C 404.794 166.316 408.394 167.816 408.394 171.316 C 408.394 175.616 406.094 177.316 399.794 177.816 C 394.794 178.116 393.494 177.816 391.094 176.016 C 389.494 174.716 387.794 172.716 387.394 171.416 C 386.494 169.116 385.994 169.016 376.894 169.016 C 367.594 169.016 367.394 169.116 367.394 171.316 C 367.394 175.016 372.294 183.816 375.794 186.516 C 382.594 191.716 395.094 193.916 406.794 192.016 C 417.394 190.316 424.694 185.616 427.294 178.716 C 428.994 174.216 428.594 165.016 426.494 160.316 C 423.094 152.916 416.894 150.216 399.194 148.516 C 391.094 147.716 387.794 145.616 388.694 141.816 C 390.194 136.016 401.794 135.416 406.494 140.916 C 408.994 144.016 409.094 144.016 418.694 144.016 L 428.394 144.016 L 427.794 141.216 C 426.794 137.316 423.894 131.816 421.794 129.916 C 416.394 125.116 411.194 123.616 399.894 123.416 C 393.894 123.216 387.994 123.416 386.894 123.616 Z" fill="#000000" stroke="none"/>
  <path d="M 551.694 124.816 C 537.794 129.816 530.394 141.116 530.394 157.516 C 530.394 174.716 536.694 184.516 551.494 190.216 C 558.394 192.816 572.394 193.116 580.394 190.716 C 592.394 187.116 600.494 177.316 602.394 164.016 C 604.794 147.116 597.494 132.016 583.894 125.816 C 576.894 122.716 559.294 122.116 551.694 124.816 Z M 577.394 142.516 C 581.094 146.016 582.894 154.016 581.894 161.916 C 580.494 173.016 576.194 176.516 564.694 175.816 C 559.094 175.516 557.894 175.016 555.094 172.216 C 551.994 169.016 551.894 168.816 551.594 158.716 C 551.294 149.816 551.594 148.116 553.394 145.216 C 556.294 140.516 560.494 138.916 568.194 139.416 C 573.494 139.716 575.094 140.316 577.394 142.516 Z" fill="#000000" stroke="none"/>
  <path d="M 985.894 124.316 C 968.894 129.916 960.394 145.016 963.294 164.116 C 964.594 172.516 966.894 178.116 970.794 182.816 C 976.994 190.016 987.994 193.616 999.094 192.016 C 1006.494 191.016 1010.394 189.016 1013.794 184.816 L 1016.394 181.516 L 1016.394 186.216 L 1016.394 191.016 L 1024.894 191.016 L 1033.394 191.016 L 1033.394 172.016 L 1033.394 153.016 L 1014.394 153.016 L 995.394 153.016 L 995.394 159.516 L 995.394 166.016 L 1004.994 166.016 C 1014.394 166.016 1014.494 166.016 1013.894 168.216 C 1013.494 169.516 1011.894 171.816 1010.294 173.516 C 1007.894 176.016 1006.594 176.516 1001.194 176.816 C 988.994 177.416 983.894 171.716 983.994 157.416 C 983.994 144.916 988.494 139.116 998.594 138.216 C 1005.194 137.716 1010.894 139.816 1012.594 143.416 C 1013.694 145.916 1013.994 146.016 1023.594 146.016 C 1033.094 146.016 1033.394 145.916 1033.394 143.716 C 1033.294 140.416 1029.994 133.816 1026.794 130.816 C 1020.994 125.416 1015.094 123.616 1001.894 123.316 C 993.994 123.116 988.494 123.516 985.894 124.316 Z" fill="#000000" stroke="none"/>
  <path d="M 54.394 132.016 L 54.394 140.016 L 59.894 140.016 L 65.394 140.016 L 65.394 157.516 L 65.394 175.016 L 59.894 175.016 L 54.394 175.016 L 54.394 183.016 L 54.394 191.016 L 75.394 191.016 L 96.394 191.016 L 96.394 183.016 L 96.394 175.016 L 90.894 175.016 L 85.394 175.016 L 85.394 157.516 L 85.394 140.016 L 90.894 140.016 L 96.394 140.016 L 96.394 132.016 L 96.394 124.016 L 75.394 124.016 L 54.394 124.016 L 54.394 132.016 Z" fill="#000000" stroke="none"/>
  <path d="M 113.394 157.516 L 113.394 191.016 L 123.394 191.016 L 133.394 191.016 L 133.594 164.416 L 133.894 137.816 L 140.994 164.116 L 148.094 190.516 L 159.094 190.816 L 170.094 191.116 L 176.994 165.516 L 183.894 139.916 L 184.194 165.516 L 184.394 191.016 L 194.394 191.016 L 204.394 191.016 L 204.394 157.516 L 204.394 124.016 L 187.694 124.216 L 170.994 124.516 L 165.394 146.416 C 162.294 158.516 159.494 167.916 159.194 167.416 C 158.994 166.916 156.294 156.916 153.394 145.216 L 147.994 124.016 L 130.694 124.016 L 113.394 124.016 L 113.394 157.516 Z" fill="#000000" stroke="none"/>
  <path d="M 222.394 157.516 L 222.394 191.016 L 249.394 191.016 L 276.394 191.016 L 276.394 183.016 L 276.394 175.016 L 259.394 175.016 L 242.394 175.016 L 242.394 169.516 L 242.394 164.016 L 257.894 164.016 L 273.394 164.016 L 273.394 157.016 L 273.394 150.016 L 257.894 150.016 L 242.394 150.016 L 242.394 145.016 L 242.394 140.016 L 259.394 140.016 L 276.394 140.016 L 276.394 132.016 L 276.394 124.016 L 249.394 124.016 L 222.394 124.016 L 222.394 157.516 Z" fill="#000000" stroke="none"/>
  <path d="M 292.394 157.416 L 292.394 191.016 L 302.894 191.016 L 313.394 191.016 L 313.394 179.416 L 313.394 167.816 L 320.494 168.216 C 326.794 168.516 327.894 168.916 329.994 171.316 C 331.994 173.716 332.394 175.216 332.394 181.016 C 332.394 191.316 332.094 191.016 343.494 191.016 L 353.294 191.016 L 352.694 181.216 C 351.994 169.116 350.394 165.516 344.794 162.716 L 340.594 160.716 L 344.594 158.716 C 350.494 155.816 353.694 150.316 353.694 143.216 C 353.694 134.816 350.994 130.516 343.394 126.416 C 340.294 124.716 336.994 124.516 316.194 124.216 L 292.394 123.816 L 292.394 157.416 Z M 331.794 142.216 C 334.094 145.416 333.794 148.716 330.894 151.516 C 328.794 153.716 327.594 154.016 320.894 154.016 L 313.394 154.016 L 313.394 147.016 L 313.394 140.016 L 321.794 140.016 C 329.394 140.016 330.394 140.216 331.794 142.216 Z" fill="#000000" stroke="none"/>
  <path d="M 453.894 153.216 C 448.594 169.316 443.694 184.416 442.894 186.816 L 441.494 191.116 L 451.594 190.816 L 461.694 190.516 L 463.394 185.516 L 465.094 180.516 L 478.994 180.216 L 492.994 179.916 L 494.794 185.516 L 496.494 191.016 L 506.494 191.016 C 511.894 191.016 516.394 190.716 516.394 190.216 C 516.394 189.816 511.494 174.916 505.594 157.016 L 494.694 124.516 L 479.094 124.216 L 463.494 123.916 L 453.894 153.216 Z M 482.994 150.216 C 484.994 156.416 486.894 162.116 487.194 162.716 C 487.494 163.716 485.494 164.016 479.094 164.016 L 470.594 164.016 L 474.694 151.516 C 476.994 144.616 478.894 139.016 478.994 139.016 C 479.094 139.016 480.894 144.116 482.994 150.216 Z" fill="#000000" stroke="none"/>
  <path d="M 653.394 131.916 L 653.394 140.016 L 659.894 140.016 L 666.394 140.016 L 666.394 157.516 L 666.394 174.916 L 659.194 175.216 L 651.894 175.516 L 651.594 183.216 L 651.294 191.016 L 675.394 191.016 L 699.494 191.016 L 699.194 183.216 L 698.894 175.516 L 692.694 175.216 L 686.494 174.916 L 686.194 154.516 C 685.894 135.616 685.694 133.916 683.794 131.316 C 679.794 126.016 675.894 124.616 664.194 124.116 L 653.394 123.816 L 653.394 131.916 Z" fill="#000000" stroke="none"/>
  <path d="M 790.894 126.216 C 791.194 127.516 795.894 142.416 801.294 159.516 L 810.994 190.516 L 825.994 190.816 L 840.994 191.016 L 851.194 158.316 C 856.794 140.216 861.394 125.216 861.394 124.716 C 861.394 124.316 856.994 124.016 851.594 124.016 L 841.794 124.016 L 834.494 147.216 C 830.594 160.016 827.094 171.216 826.794 172.016 C 826.494 172.816 824.794 168.816 822.994 163.016 C 821.194 157.216 817.794 146.116 815.294 138.216 L 810.894 124.016 L 800.594 124.016 C 790.494 124.016 790.394 124.016 790.894 126.216 Z" fill="#000000" stroke="none"/>
  <path d="M 886.894 153.216 C 881.594 169.316 876.694 184.416 875.894 186.816 L 874.494 191.116 L 884.594 190.816 L 894.694 190.516 L 896.394 185.516 L 898.094 180.516 L 911.994 180.216 L 925.994 179.916 L 927.794 185.516 L 929.494 191.016 L 939.494 191.016 C 944.894 191.016 949.394 190.716 949.394 190.216 C 949.394 189.816 944.494 174.916 938.594 157.016 L 927.694 124.516 L 912.094 124.216 L 896.494 123.916 L 886.894 153.216 Z M 915.994 150.216 C 917.994 156.416 919.894 162.116 920.194 162.716 C 920.494 163.716 918.494 164.016 912.094 164.016 L 903.594 164.016 L 907.694 151.516 C 909.994 144.616 911.894 139.016 911.994 139.016 C 912.094 139.016 913.894 144.116 915.994 150.216 Z" fill="#000000" stroke="none"/>
  <path d="M 1059.694 157.516 L 1048.594 191.016 L 1058.794 191.016 L 1068.994 191.016 L 1070.794 185.516 L 1072.494 180.016 L 1086.394 180.016 L 1100.294 180.016 L 1101.994 185.516 L 1103.794 191.016 L 1113.994 191.016 L 1124.194 191.016 L 1113.094 157.516 L 1101.894 124.016 L 1086.394 124.016 L 1070.894 124.016 L 1059.694 157.516 Z M 1090.694 151.316 C 1092.694 157.516 1094.394 162.916 1094.394 163.316 C 1094.394 163.716 1090.794 164.016 1086.394 164.016 C 1081.994 164.016 1078.394 163.716 1078.394 163.316 C 1078.394 161.816 1085.894 140.016 1086.394 140.016 C 1086.694 140.016 1088.594 145.116 1090.694 151.316 Z" fill="#000000" stroke="none"/>
  <path d="M 1625.394 129.516 L 1625.394 132.016 L 1680.494 132.016 L 1735.494 132.016 L 1735.194 129.716 L 1734.894 127.516 L 1680.194 127.216 L 1625.394 127.016 L 1625.394 129.516 Z" fill="#000000" stroke="none"/>
  <path d="M 1625.394 136.516 L 1625.394 139.016 L 1680.194 138.816 L 1734.894 138.516 L 1735.194 136.216 L 1735.494 134.016 L 1680.494 134.016 L 1625.394 134.016 L 1625.394 136.516 Z" fill="#000000" stroke="none"/>
  <path d="M 1625.394 145.016 C 1625.394 147.016 1626.094 147.016 1680.394 147.016 C 1734.694 147.016 1735.394 147.016 1735.394 145.016 C 1735.394 143.016 1734.694 143.016 1680.394 143.016 C 1626.094 143.016 1625.394 143.016 1625.394 145.016 Z" fill="#000000" stroke="none"/>
  <path d="M 1625.394 152.516 C 1625.394 153.816 1631.994 154.016 1680.494 154.016 C 1724.094 154.016 1735.494 153.716 1735.194 152.716 C 1734.794 151.816 1722.694 151.416 1680.094 151.216 C 1631.894 151.016 1625.394 151.216 1625.394 152.516 Z" fill="#000000" stroke="none"/>
  <path d="M 1625.394 159.516 L 1625.394 163.016 L 1680.194 162.816 L 1734.894 162.516 L 1735.194 159.216 L 1735.494 156.016 L 1680.494 156.016 L 1625.394 156.016 L 1625.394 159.516 Z" fill="#000000" stroke="none"/>
  <path d="M 1625.394 168.516 L 1625.394 172.016 L 1680.194 171.816 L 1734.894 171.516 L 1735.194 168.216 L 1735.494 165.016 L 1680.494 165.016 L 1625.394 165.016 L 1625.394 168.516 Z" fill="#000000" stroke="none"/>
  <path d="M 1625.394 175.516 L 1625.394 178.016 L 1680.494 178.016 L 1735.494 178.016 L 1735.194 175.716 L 1734.894 173.516 L 1680.194 173.216 L 1625.394 173.016 L 1625.394 175.516 Z" fill="#000000" stroke="none"/>
  <path d="M 1625.394 183.516 L 1625.394 187.016 L 1680.394 187.016 L 1735.394 187.016 L 1735.394 183.516 L 1735.394 180.016 L 1680.394 180.016 L 1625.394 180.016 L 1625.394 183.516 Z" fill="#000000" stroke="none"/>
  <path d="M 1625.394 193.516 L 1625.394 196.016 L 1680.394 196.016 L 1735.394 196.016 L 1735.394 193.516 L 1735.394 191.016 L 1680.394 191.016 L 1625.394 191.016 L 1625.394 193.516 Z" fill="#000000" stroke="none"/>
  <path d="M 1625.394 202.516 L 1625.394 205.016 L 1680.194 204.816 L 1734.894 204.516 L 1735.194 202.216 L 1735.494 200.016 L 1680.494 200.016 L 1625.394 200.016 L 1625.394 202.516 Z" fill="#000000" stroke="none"/>
  <path d="M 1051.894 207.216 C 1050.094 208.916 1049.294 210.616 1049.094 213.516 L 1048.894 217.516 L 1054.194 217.816 C 1058.994 218.116 1059.494 217.916 1060.394 215.616 C 1061.594 212.416 1063.994 212.316 1069.594 215.216 C 1072.294 216.716 1075.694 217.516 1078.694 217.516 C 1082.794 217.516 1083.994 217.016 1085.994 214.716 C 1087.494 212.916 1088.394 210.616 1088.394 208.416 L 1088.394 205.016 L 1082.994 205.016 C 1078.094 205.016 1077.594 205.216 1076.994 207.516 C 1076.194 210.616 1074.894 210.616 1068.194 207.516 C 1061.394 204.316 1055.394 204.216 1051.894 207.216 Z" fill="#000000" stroke="none"/>
  <path d="M 1625.394 209.016 C 1625.394 211.016 1626.094 211.016 1680.394 211.016 C 1734.694 211.016 1735.394 211.016 1735.394 209.016 C 1735.394 207.016 1734.694 207.016 1680.394 207.016 C 1626.094 207.016 1625.394 207.016 1625.394 209.016 Z" fill="#000000" stroke="none"/>
  <path d="M 1625.394 216.516 L 1625.394 220.016 L 1680.394 220.016 L 1735.394 220.016 L 1735.394 216.516 L 1735.394 213.016 L 1680.394 213.016 L 1625.394 213.016 L 1625.394 216.516 Z" fill="#000000" stroke="none"/>
  <path d="M 1742.394 218.816 C 1742.394 219.316 1743.394 220.516 1744.594 221.616 C 1746.494 223.316 1746.694 223.316 1746.094 221.716 C 1745.594 220.216 1746.094 220.016 1749.894 220.016 C 1752.394 220.016 1754.394 219.516 1754.394 219.016 C 1754.394 218.416 1751.694 218.016 1748.394 218.016 C 1745.094 218.016 1742.394 218.416 1742.394 218.816 Z" fill="#000000" stroke="none"/>
  <path d="M 434.694 222.816 C 427.194 225.516 422.094 229.216 418.494 234.616 C 414.194 241.216 412.894 246.016 412.894 256.016 C 412.894 275.416 423.094 287.316 441.894 289.916 C 455.794 291.916 469.194 288.216 476.494 280.316 C 483.194 273.016 484.894 268.216 484.894 256.016 C 484.894 246.816 484.594 244.816 482.294 240.016 C 478.694 232.316 474.594 227.916 467.694 224.516 C 462.494 221.916 460.694 221.616 450.894 221.316 C 442.194 221.016 438.794 221.316 434.694 222.816 Z M 457.394 238.816 C 462.494 241.316 464.394 245.916 464.394 255.316 C 464.394 268.716 460.194 274.016 449.594 274.016 C 437.594 274.016 433.894 269.616 433.894 255.516 C 433.894 245.016 435.694 240.716 440.694 238.516 C 445.194 236.516 453.194 236.716 457.394 238.816 Z" fill="#000000" stroke="none"/>
  <path d="M 522.894 222.316 C 505.894 227.916 497.394 243.016 500.294 262.116 C 501.594 270.516 503.894 276.116 507.794 280.816 C 513.994 288.016 524.994 291.616 536.094 290.016 C 543.494 289.016 547.394 287.016 550.794 282.816 L 553.394 279.516 L 553.394 284.216 L 553.394 289.016 L 561.894 289.016 L 570.394 289.016 L 570.394 270.016 L 570.394 251.016 L 551.394 251.016 L 532.394 251.016 L 532.394 257.516 L 532.394 264.016 L 541.994 264.016 C 551.394 264.016 551.494 264.016 550.894 266.216 C 550.494 267.516 548.894 269.816 547.294 271.516 C 544.894 274.016 543.594 274.516 538.194 274.816 C 525.994 275.416 520.894 269.716 520.994 255.416 C 520.994 242.916 525.494 237.116 535.594 236.216 C 542.194 235.716 547.894 237.816 549.594 241.416 C 550.694 243.916 550.994 244.016 560.594 244.016 C 570.094 244.016 570.394 243.916 570.394 241.716 C 570.294 238.416 566.994 231.816 563.794 228.816 C 557.994 223.416 552.094 221.616 538.894 221.316 C 530.994 221.116 525.494 221.516 522.894 222.316 Z" fill="#000000" stroke="none"/>
  <path d="M 967.394 223.016 C 960.294 225.616 955.594 229.416 951.694 236.016 C 945.994 245.416 944.994 258.816 948.994 270.416 C 952.294 280.016 965.594 290.016 974.994 290.016 C 976.694 290.016 977.694 290.816 978.394 292.616 C 979.994 296.616 979.694 297.016 975.394 297.016 L 971.394 297.016 L 971.394 303.016 L 971.394 309.016 L 979.294 309.016 C 986.194 309.016 987.694 308.716 989.994 306.716 C 992.894 304.216 993.394 301.416 992.094 294.216 C 991.494 290.516 991.594 290.016 993.194 290.016 C 994.194 290.016 997.394 289.316 1000.294 288.416 C 1010.094 285.516 1016.094 277.716 1017.994 265.216 L 1018.694 261.016 L 1007.994 261.016 C 997.994 261.016 997.394 261.116 997.394 263.016 C 997.394 266.416 994.594 270.916 991.394 272.516 C 987.694 274.416 979.394 274.416 974.894 272.616 C 969.694 270.416 967.894 266.116 967.894 256.016 C 967.894 249.316 968.294 246.816 969.894 244.016 C 972.794 239.016 977.594 236.816 984.494 237.316 C 991.894 237.716 995.094 239.916 996.594 245.516 L 997.794 250.016 L 1008.194 250.016 C 1017.594 250.016 1018.494 249.816 1018.094 248.216 C 1017.794 247.316 1017.294 244.716 1016.894 242.516 C 1015.294 233.116 1008.894 225.916 999.594 223.016 C 990.794 220.316 975.094 220.316 967.394 223.016 Z" fill="#000000" stroke="none"/>
  <path d="M 1141.694 222.816 C 1134.194 225.516 1129.094 229.216 1125.494 234.616 C 1121.194 241.216 1119.894 246.016 1119.894 256.016 C 1119.894 275.416 1130.094 287.316 1148.894 289.916 C 1162.794 291.916 1176.194 288.216 1183.494 280.316 C 1190.194 273.016 1191.894 268.216 1191.894 256.016 C 1191.894 246.816 1191.594 244.816 1189.294 240.016 C 1185.694 232.316 1181.594 227.916 1174.694 224.516 C 1169.494 221.916 1167.694 221.616 1157.894 221.316 C 1149.194 221.016 1145.794 221.316 1141.694 222.816 Z M 1164.394 238.816 C 1169.494 241.316 1171.394 245.916 1171.394 255.316 C 1171.394 268.716 1167.194 274.016 1156.594 274.016 C 1144.594 274.016 1140.894 269.616 1140.894 255.516 C 1140.894 245.016 1142.694 240.716 1147.694 238.516 C 1152.194 236.516 1160.194 236.716 1164.394 238.816 Z" fill="#000000" stroke="none"/>
  <path d="M 54.394 255.516 L 54.394 289.016 L 63.894 289.016 L 73.394 289.016 L 73.394 264.716 L 73.394 240.516 L 78.794 254.516 C 81.694 262.216 85.894 273.016 88.094 278.516 L 91.994 288.516 L 108.694 288.816 L 125.394 289.016 L 125.194 255.816 L 124.894 222.516 L 115.394 222.516 L 105.894 222.516 L 105.394 245.716 L 104.894 268.916 L 95.894 245.516 L 86.894 222.016 L 70.694 222.016 L 54.394 222.016 L 54.394 255.516 Z" fill="#000000" stroke="none"/>
  <path d="M 151.894 251.216 C 146.594 267.316 141.694 282.416 140.894 284.816 L 139.494 289.116 L 149.594 288.816 L 159.694 288.516 L 161.394 283.516 L 163.094 278.516 L 176.994 278.216 L 190.994 277.916 L 192.794 283.516 L 194.494 289.016 L 204.494 289.016 C 209.894 289.016 214.394 288.716 214.394 288.216 C 214.394 287.816 209.494 272.916 203.594 255.016 L 192.694 222.516 L 177.094 222.216 L 161.494 221.916 L 151.894 251.216 Z M 180.994 248.216 C 182.994 254.416 184.894 260.116 185.194 260.716 C 185.494 261.716 183.494 262.016 177.094 262.016 L 168.594 262.016 L 172.694 249.516 C 174.994 242.616 176.894 237.016 176.994 237.016 C 177.094 237.016 178.894 242.116 180.994 248.216 Z" fill="#000000" stroke="none"/>
  <path d="M 262.394 255.416 L 262.394 289.016 L 272.394 289.016 L 282.394 289.016 L 282.394 279.016 L 282.394 269.016 L 292.694 269.016 C 309.794 268.916 316.494 266.316 320.694 258.016 C 322.494 254.416 322.894 251.816 322.894 245.016 C 322.894 234.316 320.294 228.916 313.394 225.016 C 308.994 222.616 308.294 222.516 285.694 222.216 L 262.394 221.816 L 262.394 255.416 Z M 300.794 240.216 C 302.994 243.316 302.794 248.216 300.394 250.816 C 298.594 252.716 297.294 253.016 290.394 253.016 L 282.394 253.016 L 282.394 245.516 L 282.394 238.016 L 290.794 238.016 C 298.394 238.016 299.394 238.216 300.794 240.216 Z" fill="#000000" stroke="none"/>
  <path d="M 337.394 255.416 L 337.394 289.016 L 347.394 289.016 L 357.294 289.016 L 357.594 277.716 L 357.894 266.516 L 365.194 266.616 C 375.294 266.716 376.494 267.916 377.294 279.716 L 377.894 288.516 L 388.094 288.816 L 398.294 289.116 L 397.794 281.316 C 396.894 266.616 395.694 263.816 388.594 260.016 C 386.394 258.916 385.594 258.116 386.594 258.016 C 389.094 258.016 395.894 251.616 397.394 248.016 C 398.094 246.316 398.494 242.516 398.194 239.216 C 397.694 231.916 394.794 227.516 388.494 224.616 C 384.294 222.716 381.894 222.516 360.694 222.216 L 337.394 221.916 L 337.394 255.416 Z M 376.394 239.916 C 376.894 241.016 377.394 243.416 377.394 245.416 C 377.394 250.516 374.694 252.016 365.194 252.016 L 357.394 252.016 L 357.394 245.016 L 357.394 238.016 L 366.394 238.016 C 374.194 238.016 375.494 238.216 376.394 239.916 Z" fill="#000000" stroke="none"/>
  <path d="M 588.394 255.416 L 588.394 289.016 L 598.394 289.016 L 608.394 289.016 L 608.394 277.516 L 608.394 266.016 L 613.794 266.016 C 624.194 266.016 627.294 268.516 627.394 277.116 C 627.394 280.216 627.694 284.216 627.994 285.916 L 628.694 289.016 L 638.794 289.016 L 648.994 289.016 L 648.294 283.716 C 647.894 280.916 647.494 276.216 647.494 273.516 C 647.394 267.116 644.694 262.716 639.494 260.416 L 635.494 258.616 L 639.294 256.916 C 649.494 252.416 652.594 237.816 645.194 229.416 C 639.594 223.116 637.494 222.616 611.694 222.216 L 588.394 221.816 L 588.394 255.416 Z M 626.594 239.716 C 628.994 241.916 628.994 247.416 626.394 250.016 C 624.694 251.716 623.094 252.016 616.394 252.016 L 608.394 252.016 L 608.394 245.016 L 608.394 238.016 L 616.594 238.016 C 622.794 238.016 625.194 238.416 626.594 239.716 Z" fill="#000000" stroke="none"/>
  <path d="M 673.794 254.216 C 667.894 272.016 662.894 287.116 662.594 287.716 C 662.294 288.716 664.594 289.016 672.194 289.016 L 682.294 289.016 L 683.994 283.516 L 685.794 278.016 L 699.894 278.016 L 713.994 278.016 L 715.794 283.516 L 717.494 289.016 L 727.594 289.016 C 735.194 289.016 737.494 288.716 737.194 287.716 C 736.894 287.116 731.894 272.016 725.994 254.216 L 715.194 222.016 L 699.894 222.016 L 684.594 222.016 L 673.794 254.216 Z M 703.994 248.216 C 705.994 254.416 707.894 260.116 708.194 260.716 C 708.494 261.716 706.394 262.016 699.894 262.016 C 693.394 262.016 691.294 261.716 691.594 260.716 C 691.894 260.116 693.794 254.416 695.794 248.216 C 697.894 242.116 699.694 237.016 699.894 237.016 C 700.094 237.016 701.894 242.116 703.994 248.216 Z" fill="#000000" stroke="none"/>
  <path d="M 752.394 255.516 L 752.394 289.016 L 762.394 289.016 L 772.394 289.016 L 772.594 263.216 L 772.894 237.516 L 779.794 263.316 L 786.694 289.116 L 797.694 288.816 L 808.794 288.516 L 815.794 262.516 L 822.894 236.516 L 823.194 262.716 L 823.394 289.016 L 833.394 289.016 L 843.394 289.016 L 843.394 255.516 L 843.394 222.016 L 826.494 222.016 L 809.694 222.016 L 804.494 242.216 C 801.694 253.416 798.994 263.416 798.494 264.416 C 797.994 265.816 796.494 261.616 793.494 249.416 C 791.194 240.116 788.594 230.116 787.794 227.216 L 786.294 222.016 L 769.294 222.016 L 752.394 222.016 L 752.394 255.516 Z" fill="#000000" stroke="none"/>
  <path d="M 879.894 223.216 C 878.194 227.716 858.394 287.616 858.394 288.216 C 858.394 288.716 862.894 289.016 868.294 289.016 L 878.294 289.016 L 879.994 283.516 L 881.794 277.916 L 895.794 278.216 L 909.694 278.516 L 911.394 283.516 L 913.094 288.516 L 923.194 288.816 C 931.094 289.016 933.294 288.816 932.994 287.816 C 932.694 287.116 927.794 272.016 921.894 254.216 L 911.194 222.016 L 895.794 222.016 C 884.294 222.016 880.194 222.316 879.894 223.216 Z M 896.094 261.816 C 891.694 262.016 887.994 261.916 887.794 261.816 C 887.494 261.516 893.494 241.816 894.994 238.016 C 895.394 237.116 897.394 241.816 899.894 249.016 L 904.094 261.516 L 896.094 261.816 Z" fill="#000000" stroke="none"/>
  <path d="M 1052.894 223.216 C 1051.194 227.716 1031.394 287.616 1031.394 288.216 C 1031.394 288.716 1035.894 289.016 1041.294 289.016 L 1051.294 289.016 L 1052.994 283.516 L 1054.794 277.916 L 1068.794 278.216 L 1082.694 278.516 L 1084.394 283.516 L 1086.094 288.516 L 1096.194 288.816 C 1104.094 289.016 1106.294 288.816 1105.994 287.816 C 1105.694 287.116 1100.794 272.016 1094.894 254.216 L 1084.194 222.016 L 1068.794 222.016 C 1057.294 222.016 1053.194 222.316 1052.894 223.216 Z M 1069.094 261.816 C 1064.694 262.016 1060.994 261.916 1060.794 261.816 C 1060.494 261.516 1066.494 241.816 1067.994 238.016 C 1068.394 237.116 1070.394 241.816 1072.894 249.016 L 1077.094 261.516 L 1069.094 261.816 Z" fill="#000000" stroke="none"/>
  <path d="M 1625.394 226.516 L 1625.394 231.016 L 1680.394 231.016 L 1735.394 231.016 L 1735.394 226.516 L 1735.394 222.016 L 1680.394 222.016 L 1625.394 222.016 L 1625.394 226.516 Z" fill="#000000" stroke="none"/>
  <path d="M 1743.394 232.416 C 1741.894 233.916 1742.194 236.616 1743.894 238.016 C 1745.094 239.016 1745.794 239.016 1746.594 238.216 C 1747.394 237.416 1748.094 237.416 1749.394 238.216 C 1752.294 240.116 1754.594 238.416 1754.194 234.816 C 1753.894 231.616 1753.794 231.516 1749.194 231.416 C 1746.594 231.416 1743.994 231.816 1743.394 232.416 Z M 1753.394 235.116 C 1753.394 236.316 1752.694 237.016 1751.394 237.016 C 1749.494 237.016 1748.594 234.216 1749.994 232.716 C 1751.094 231.616 1753.394 233.216 1753.394 235.116 Z M 1746.994 234.116 C 1747.994 235.816 1745.694 237.716 1744.294 236.316 C 1743.094 235.116 1743.894 233.016 1745.394 233.016 C 1745.894 233.016 1746.594 233.516 1746.994 234.116 Z" fill="#000000" stroke="none"/>
  <path d="M 1625.394 234.016 C 1625.394 234.716 1644.394 235.016 1680.394 235.016 C 1716.394 235.016 1735.394 234.716 1735.394 234.016 C 1735.394 233.316 1716.394 233.016 1680.394 233.016 C 1644.394 233.016 1625.394 233.316 1625.394 234.016 Z" fill="#000000" stroke="none"/>
  <path d="M 1742.394 244.516 C 1742.394 247.016 1742.894 249.016 1743.394 249.016 C 1743.994 249.016 1744.394 247.716 1744.394 246.116 L 1744.394 243.216 L 1748.094 245.116 C 1752.194 247.216 1754.394 247.516 1754.394 246.016 C 1754.394 245.416 1753.794 245.016 1752.994 245.016 C 1752.294 245.016 1749.594 243.916 1746.994 242.516 L 1742.394 240.116 L 1742.394 244.516 Z" fill="#000000" stroke="none"/>
  <path d="M 1625.394 243.016 C 1625.394 243.716 1644.394 244.016 1680.394 244.016 C 1716.394 244.016 1735.394 243.716 1735.394 243.016 C 1735.394 242.316 1716.394 242.016 1680.394 242.016 C 1644.394 242.016 1625.394 242.316 1625.394 243.016 Z" fill="#000000" stroke="none"/>
  <path d="M 1625.394 253.016 C 1625.394 255.016 1626.094 255.016 1680.394 255.016 C 1734.694 255.016 1735.394 255.016 1735.394 253.016 C 1735.394 251.016 1734.694 251.016 1680.394 251.016 C 1626.094 251.016 1625.394 251.016 1625.394 253.016 Z" fill="#000000" stroke="none"/>
  <path d="M 1747.894 256.616 C 1746.994 257.616 1746.594 259.016 1746.994 260.216 C 1747.494 261.916 1747.294 262.016 1745.494 261.116 C 1743.094 259.816 1742.894 258.916 1744.694 257.116 C 1745.694 256.016 1745.594 255.816 1744.394 256.216 C 1741.894 257.016 1742.594 261.316 1745.594 262.916 C 1749.494 265.116 1753.794 263.416 1754.194 259.616 C 1754.694 255.316 1750.994 253.516 1747.894 256.616 Z M 1753.194 259.116 C 1753.594 261.016 1751.294 262.216 1749.394 261.016 C 1747.594 259.916 1748.994 256.816 1751.094 257.216 C 1752.094 257.416 1752.994 258.216 1753.194 259.116 Z" fill="#000000" stroke="none"/>
  <path d="M 1625.394 258.516 C 1625.394 259.816 1631.894 260.016 1680.094 259.816 C 1722.694 259.616 1734.794 259.216 1735.194 258.216 C 1735.494 257.316 1724.094 257.016 1680.494 257.016 C 1631.994 257.016 1625.394 257.216 1625.394 258.516 Z" fill="#000000" stroke="none"/>
  <path d="M 1625.394 265.016 L 1625.394 268.016 L 1680.394 268.016 L 1735.394 268.016 L 1735.394 265.016 L 1735.394 262.016 L 1680.394 262.016 L 1625.394 262.016 L 1625.394 265.016 Z" fill="#000000" stroke="none"/>
  <path d="M 1749.094 265.716 C 1748.694 266.116 1747.094 266.416 1745.594 266.516 C 1743.394 266.516 1742.794 267.016 1742.594 269.116 C 1742.394 270.816 1742.894 272.016 1743.794 272.316 C 1745.594 273.016 1745.994 271.516 1744.394 270.516 C 1742.694 269.516 1743.294 268.016 1745.394 268.016 C 1746.494 268.016 1747.394 268.416 1747.394 269.016 C 1747.394 269.516 1747.894 270.016 1748.394 270.016 C 1748.994 270.016 1749.394 269.316 1749.394 268.516 C 1749.394 266.516 1752.294 266.616 1753.094 268.616 C 1753.394 269.516 1753.094 270.616 1752.294 271.016 C 1751.594 271.516 1751.294 272.216 1751.694 272.616 C 1752.994 273.916 1754.594 271.316 1754.194 268.416 C 1753.894 265.516 1750.794 263.916 1749.094 265.716 Z" fill="#000000" stroke="none"/>
  <path d="M 1625.394 272.516 L 1625.394 275.016 L 1680.494 275.016 L 1735.494 275.016 L 1735.194 272.716 L 1734.894 270.516 L 1680.194 270.216 L 1625.394 270.016 L 1625.394 272.516 Z" fill="#000000" stroke="none"/>
  <path d="M 1743.594 276.216 C 1741.894 277.916 1742.094 281.716 1743.894 282.416 C 1745.694 283.116 1745.894 281.916 1744.194 280.216 C 1743.294 279.316 1743.294 278.716 1744.294 277.716 C 1745.294 276.716 1745.794 276.816 1746.794 278.216 C 1748.394 280.416 1749.394 280.516 1749.394 278.516 C 1749.394 277.716 1750.294 277.016 1751.394 277.016 C 1753.594 277.016 1754.294 280.516 1752.194 281.316 C 1751.494 281.516 1751.194 282.116 1751.594 282.516 C 1752.894 283.816 1754.394 281.916 1754.394 278.916 C 1754.394 275.516 1752.094 274.116 1749.294 275.816 C 1748.194 276.516 1747.294 276.616 1746.894 276.016 C 1746.094 274.716 1745.094 274.716 1743.594 276.216 Z" fill="#000000" stroke="none"/>
  <path d="M 1625.394 280.516 L 1625.394 284.016 L 1680.394 284.016 L 1735.394 284.016 L 1735.394 280.516 L 1735.394 277.016 L 1680.394 277.016 L 1625.394 277.016 L 1625.394 280.516 Z" fill="#000000" stroke="none"/>
  <path d="M 1743.094 285.716 C 1741.894 286.816 1742.294 290.716 1743.694 291.916 C 1744.494 292.516 1745.394 292.716 1745.694 292.316 C 1746.094 292.016 1745.594 291.116 1744.594 290.416 C 1742.994 289.216 1742.994 289.016 1744.494 287.516 C 1745.994 285.916 1746.394 286.116 1749.694 289.416 C 1751.694 291.416 1753.594 293.016 1753.894 293.016 C 1754.194 293.016 1754.294 291.116 1754.294 288.716 C 1754.094 285.816 1753.994 285.316 1753.694 287.216 C 1753.194 290.616 1752.694 290.716 1750.194 287.516 C 1748.394 285.216 1744.594 284.216 1743.094 285.716 Z" fill="#000000" stroke="none"/>
  <path d="M 1625.394 290.516 L 1625.394 295.016 L 1680.394 295.016 L 1735.394 295.016 L 1735.394 290.516 L 1735.394 286.016 L 1680.394 286.016 L 1625.394 286.016 L 1625.394 290.516 Z" fill="#000000" stroke="none"/>
  <path d="M 1747.994 295.516 C 1746.994 296.516 1746.594 298.016 1746.894 299.116 C 1747.694 301.416 1746.094 301.616 1744.294 299.416 C 1743.294 298.116 1743.294 297.716 1744.394 297.016 C 1745.194 296.516 1745.494 295.816 1745.094 295.416 C 1743.894 294.116 1742.194 296.616 1742.594 299.116 C 1742.794 300.916 1743.794 301.716 1746.694 302.416 C 1749.294 303.116 1751.094 303.016 1752.194 302.316 C 1753.994 301.216 1755.194 295.016 1753.494 295.016 C 1752.994 295.016 1751.894 294.716 1751.094 294.416 C 1750.294 294.116 1748.894 294.616 1747.994 295.516 Z M 1753.194 298.116 C 1753.594 300.016 1750.494 301.516 1749.094 300.116 C 1747.694 298.716 1749.094 295.816 1751.094 296.216 C 1752.094 296.416 1752.994 297.216 1753.194 298.116 Z" fill="#000000" stroke="none"/>
  <path d="M 1625.394 300.516 L 1625.394 304.016 L 1680.194 303.816 L 1734.894 303.516 L 1735.194 300.216 L 1735.494 297.016 L 1680.494 297.016 L 1625.394 297.016 L 1625.394 300.516 Z" fill="#000000" stroke="none"/>
  <path d="M 1625.394 307.016 C 1625.394 307.716 1644.394 308.016 1680.394 308.016 C 1716.394 308.016 1735.394 307.716 1735.394 307.016 C 1735.394 306.316 1716.394 306.016 1680.394 306.016 C 1644.394 306.016 1625.394 306.316 1625.394 307.016 Z" fill="#000000" stroke="none"/>
  <path d="M 1742.394 312.316 C 1742.394 315.016 1742.894 315.916 1744.694 316.416 C 1748.794 317.516 1749.494 317.216 1748.794 314.516 C 1748.394 312.716 1748.694 311.816 1749.894 311.416 C 1752.494 310.416 1754.094 312.616 1752.494 315.116 C 1751.494 316.916 1751.494 317.116 1752.594 316.816 C 1753.294 316.516 1753.894 314.916 1753.894 312.916 C 1753.894 310.116 1753.494 309.416 1751.594 309.216 C 1748.794 308.816 1746.394 310.616 1746.394 313.116 C 1746.394 314.216 1745.994 315.016 1745.394 315.016 C 1744.894 315.016 1744.394 313.916 1744.394 312.616 C 1744.394 311.216 1743.994 309.816 1743.394 309.516 C 1742.794 309.116 1742.394 310.316 1742.394 312.316 Z" fill="#000000" stroke="none"/>
  <path d="M 1625.394 313.516 C 1625.394 314.816 1631.894 315.016 1680.094 314.816 C 1722.694 314.616 1734.794 314.216 1735.194 313.216 C 1735.494 312.316 1724.094 312.016 1680.494 312.016 C 1631.994 312.016 1625.394 312.216 1625.394 313.516 Z" fill="#000000" stroke="none"/>
  <path d="M 1625.394 320.016 L 1625.394 323.016 L 1680.394 323.016 L 1735.394 323.016 L 1735.394 320.016 L 1735.394 317.016 L 1680.394 317.016 L 1625.394 317.016 L 1625.394 320.016 Z" fill="#000000" stroke="none"/>
  <path d="M 1750.394 320.016 C 1750.394 320.516 1748.594 321.016 1746.394 321.016 C 1744.194 321.016 1742.394 321.416 1742.394 322.016 C 1742.394 322.516 1742.694 323.016 1743.194 323.016 C 1743.594 323.016 1745.194 324.116 1746.894 325.416 C 1749.594 327.616 1749.694 327.816 1748.094 329.416 C 1747.194 330.416 1746.394 332.016 1746.394 333.116 C 1746.394 334.216 1745.994 334.816 1745.394 334.516 C 1744.894 334.216 1744.394 332.816 1744.394 331.416 C 1744.394 330.116 1743.994 329.016 1743.394 329.016 C 1742.894 329.016 1742.394 330.616 1742.394 332.516 C 1742.394 334.616 1742.894 336.016 1743.694 336.016 C 1744.294 336.016 1745.894 336.316 1747.194 336.616 C 1749.294 337.216 1749.394 337.016 1748.794 334.516 C 1748.094 331.616 1749.594 329.816 1752.094 330.716 C 1753.794 331.316 1753.794 334.716 1752.194 335.316 C 1751.494 335.516 1751.194 336.116 1751.594 336.516 C 1752.794 337.816 1754.394 335.916 1754.394 333.016 C 1754.394 331.416 1753.794 329.716 1752.994 329.316 C 1751.494 328.416 1751.994 322.016 1753.594 322.016 C 1754.094 322.016 1753.894 321.316 1752.994 320.516 C 1751.294 318.816 1750.394 318.616 1750.394 320.016 Z M 1750.394 323.516 C 1750.394 325.416 1749.294 325.416 1746.794 323.516 C 1744.994 322.116 1744.994 322.116 1747.694 322.016 C 1749.394 322.016 1750.394 322.516 1750.394 323.516 Z" fill="#000000" stroke="none"/>
  <path d="M 1625.394 330.016 C 1625.394 332.016 1626.094 332.016 1680.394 332.016 C 1734.694 332.016 1735.394 332.016 1735.394 330.016 C 1735.394 328.016 1734.694 328.016 1680.394 328.016 C 1626.094 328.016 1625.394 328.016 1625.394 330.016 Z" fill="#000000" stroke="none"/>
  <path d="M 1625.394 338.516 L 1625.394 341.016 L 1680.494 341.016 L 1735.494 341.016 L 1735.194 338.716 L 1734.894 336.516 L 1680.194 336.216 L 1625.394 336.016 L 1625.394 338.516 Z" fill="#000000" stroke="none"/>
  <path d="M 1748.194 339.116 C 1747.194 339.616 1746.394 341.016 1746.394 342.016 C 1746.394 343.116 1745.994 344.016 1745.394 344.016 C 1744.894 344.016 1744.394 342.916 1744.394 341.516 C 1744.394 340.116 1743.894 339.016 1743.294 339.016 C 1742.694 339.016 1742.394 340.416 1742.594 342.216 C 1742.894 345.116 1743.294 345.516 1745.994 345.816 C 1748.894 346.116 1749.094 345.916 1748.694 343.616 C 1748.294 341.816 1748.694 340.816 1749.894 340.416 C 1752.394 339.416 1754.094 341.616 1752.594 344.016 C 1750.994 346.616 1751.094 347.116 1752.894 346.416 C 1755.094 345.516 1754.794 340.316 1752.494 339.016 C 1750.194 337.816 1750.294 337.816 1748.194 339.116 Z" fill="#000000" stroke="none"/>
  <path d="M 1625.394 347.516 L 1625.394 350.016 L 1680.394 350.016 L 1735.394 350.016 L 1735.394 347.516 L 1735.394 345.016 L 1680.394 345.016 L 1625.394 345.016 L 1625.394 347.516 Z" fill="#000000" stroke="none"/>
  <path d="M 1748.994 348.716 C 1748.594 349.116 1747.094 349.416 1745.594 349.516 C 1743.494 349.516 1742.794 350.116 1742.594 351.916 C 1742.394 353.216 1742.694 354.716 1743.294 355.316 C 1744.894 356.916 1745.894 355.316 1744.394 353.516 C 1743.394 352.316 1743.494 351.916 1744.994 351.316 C 1745.994 350.916 1746.894 351.116 1747.194 351.816 C 1747.694 353.516 1749.394 353.316 1749.394 351.516 C 1749.394 349.516 1752.294 349.616 1752.994 351.516 C 1753.394 352.316 1752.994 353.816 1752.294 354.716 C 1751.094 356.116 1751.094 356.316 1752.394 355.816 C 1754.294 355.216 1754.994 350.016 1753.194 348.916 C 1751.594 347.816 1749.994 347.816 1748.994 348.716 Z" fill="#000000" stroke="none"/>
  <path d="M 1625.394 354.016 C 1625.394 356.016 1626.094 356.016 1680.394 356.016 C 1734.694 356.016 1735.394 356.016 1735.394 354.016 C 1735.394 352.016 1734.694 352.016 1680.394 352.016 C 1626.094 352.016 1625.394 352.016 1625.394 354.016 Z" fill="#000000" stroke="none"/>
  <path d="M 1625.394 361.516 L 1625.394 365.016 L 1680.494 365.016 L 1735.494 365.016 L 1735.194 361.716 L 1734.894 358.516 L 1680.194 358.216 L 1625.394 358.016 L 1625.394 361.516 Z" fill="#000000" stroke="none"/>
  <path d="M 1743.594 364.216 C 1740.194 367.616 1743.394 371.316 1749.594 370.816 C 1753.494 370.516 1753.894 370.216 1754.194 367.616 C 1754.394 366.016 1753.994 364.416 1753.194 363.916 C 1751.194 362.616 1744.994 362.816 1743.594 364.216 Z M 1753.194 367.216 C 1753.494 368.716 1752.794 369.016 1748.994 369.016 C 1746.494 369.016 1744.194 368.516 1743.894 368.016 C 1742.694 366.016 1744.594 364.916 1748.694 365.216 C 1751.694 365.416 1752.994 366.016 1753.194 367.216 Z" fill="#000000" stroke="none"/>
  <path d="M 1625.394 371.516 L 1625.394 376.016 L 1680.394 376.016 L 1735.394 376.016 L 1735.394 371.516 L 1735.394 367.016 L 1680.394 367.016 L 1625.394 367.016 L 1625.394 371.516 Z" fill="#000000" stroke="none"/>
  <path d="M 1625.394 379.516 C 1625.394 380.816 1631.894 381.016 1680.094 380.816 C 1722.694 380.616 1734.794 380.216 1735.194 379.216 C 1735.494 378.316 1724.094 378.016 1680.494 378.016 C 1631.994 378.016 1625.394 378.216 1625.394 379.516 Z" fill="#000000" stroke="none"/>
  <path d="M 1625.394 389.516 L 1625.394 392.016 L 1680.194 391.816 L 1734.894 391.516 L 1735.194 389.216 L 1735.494 387.016 L 1680.494 387.016 L 1625.394 387.016 L 1625.394 389.516 Z" fill="#000000" stroke="none"/>
  <path d="M 1625.394 397.016 L 1625.394 400.016 L 1680.394 400.016 L 1735.394 400.016 L 1735.394 397.016 L 1735.394 394.016 L 1680.394 394.016 L 1625.394 394.016 L 1625.394 397.016 Z" fill="#000000" stroke="none"/>
  <path d="M 1625.394 403.516 C 1625.394 404.816 1631.994 405.016 1680.494 405.016 C 1724.094 405.016 1735.494 404.716 1735.194 403.716 C 1734.794 402.816 1722.694 402.416 1680.094 402.216 C 1631.894 402.016 1625.394 402.216 1625.394 403.516 Z" fill="#000000" stroke="none"/>
  <path d="M 1625.394 409.016 C 1625.394 411.016 1626.094 411.016 1680.394 411.016 C 1734.694 411.016 1735.394 411.016 1735.394 409.016 C 1735.394 407.016 1734.694 407.016 1680.394 407.016 C 1626.094 407.016 1625.394 407.016 1625.394 409.016 Z" fill="#000000" stroke="none"/>
  <path d="M 1625.394 419.016 C 1625.394 419.716 1644.394 420.016 1680.394 420.016 C 1716.394 420.016 1735.394 419.716 1735.394 419.016 C 1735.394 418.316 1716.394 418.016 1680.394 418.016 C 1644.394 418.016 1625.394 418.316 1625.394 419.016 Z" fill="#000000" stroke="none"/>
  <path d="M 1625.394 425.516 L 1625.394 429.016 L 1680.494 429.016 L 1735.494 429.016 L 1735.194 425.716 L 1734.894 422.516 L 1680.194 422.216 L 1625.394 422.016 L 1625.394 425.516 Z" fill="#000000" stroke="none"/>
  <path d="M 1625.394 435.516 L 1625.394 440.016 L 1680.394 440.016 L 1735.394 440.016 L 1735.394 435.516 L 1735.394 431.016 L 1680.394 431.016 L 1625.394 431.016 L 1625.394 435.516 Z" fill="#000000" stroke="none"/>
  <path d="M 1625.394 445.516 L 1625.394 449.016 L 1680.394 449.016 L 1735.394 449.016 L 1735.394 445.516 L 1735.394 442.016 L 1680.394 442.016 L 1625.394 442.016 L 1625.394 445.516 Z" fill="#000000" stroke="none"/>
  <path d="M 1625.394 452.016 C 1625.394 452.716 1644.394 453.016 1680.394 453.016 C 1716.394 453.016 1735.394 452.716 1735.394 452.016 C 1735.394 451.316 1716.394 451.016 1680.394 451.016 C 1644.394 451.016 1625.394 451.316 1625.394 452.016 Z" fill="#000000" stroke="none"/>
  <path d="M 1625.394 460.516 L 1625.394 464.016 L 1680.494 464.016 L 1735.494 464.016 L 1735.194 460.716 L 1734.894 457.516 L 1680.194 457.216 L 1625.394 457.016 L 1625.394 460.516 Z" fill="#000000" stroke="none"/>
  <path d="M 1625.394 467.516 C 1625.394 468.816 1631.794 469.016 1680.194 468.816 C 1715.994 468.616 1734.794 468.216 1734.694 467.516 C 1734.494 466.916 1715.194 466.416 1679.894 466.216 C 1631.694 466.016 1625.394 466.216 1625.394 467.516 Z" fill="#000000" stroke="none"/>
  <path d="M 1625.394 475.516 L 1625.394 478.016 L 1680.194 477.816 L 1734.894 477.516 L 1735.194 475.216 L 1735.494 473.016 L 1680.494 473.016 L 1625.394 473.016 L 1625.394 475.516 Z" fill="#000000" stroke="none"/>
  <path d="M 1625.394 484.016 C 1625.394 486.016 1626.094 486.016 1680.394 486.016 C 1734.694 486.016 1735.394 486.016 1735.394 484.016 C 1735.394 482.016 1734.694 482.016 1680.394 482.016 C 1626.094 482.016 1625.394 482.016 1625.394 484.016 Z" fill="#000000" stroke="none"/>
  <path d="M 1625.394 492.516 L 1625.394 495.016 L 1680.494 495.016 L 1735.494 495.016 L 1735.194 492.716 L 1734.894 490.516 L 1680.194 490.216 L 1625.394 490.016 L 1625.394 492.516 Z" fill="#000000" stroke="none"/>
  <path d="M 1625.394 499.516 L 1625.394 502.016 L 1680.194 501.816 L 1734.894 501.516 L 1735.194 499.216 L 1735.494 497.016 L 1680.494 497.016 L 1625.394 497.016 L 1625.394 499.516 Z" fill="#000000" stroke="none"/>
  <path d="M 1625.394 508.516 L 1625.394 511.016 L 1680.194 510.816 L 1734.894 510.516 L 1735.194 508.216 L 1735.494 506.016 L 1680.494 506.016 L 1625.394 506.016 L 1625.394 508.516 Z" fill="#000000" stroke="none"/>
  <path d="M 1625.394 516.016 L 1625.394 519.016 L 1680.394 519.016 L 1735.394 519.016 L 1735.394 516.016 L 1735.394 513.016 L 1680.394 513.016 L 1625.394 513.016 L 1625.394 516.016 Z" fill="#000000" stroke="none"/>
  <path d="M 1625.394 525.016 C 1625.394 525.716 1644.394 526.016 1680.394 526.016 C 1716.394 526.016 1735.394 525.716 1735.394 525.016 C 1735.394 524.316 1716.394 524.016 1680.394 524.016 C 1644.394 524.016 1625.394 524.316 1625.394 525.016 Z" fill="#000000" stroke="none"/>
  <path d="M 1331.194 538.716 C 1330.894 541.916 1330.494 542.616 1327.694 543.316 C 1319.294 545.716 1315.894 556.016 1321.594 561.616 C 1323.494 563.616 1326.094 564.616 1331.094 565.516 C 1337.894 566.816 1337.794 566.816 1322.394 566.816 C 1311.894 566.916 1305.894 566.516 1303.894 565.616 L 1300.894 564.416 L 1303.894 562.916 C 1305.494 562.116 1307.894 559.916 1309.194 558.016 C 1312.394 553.216 1311.894 546.216 1307.894 542.016 C 1304.094 538.116 1298.694 537.016 1282.494 537.016 L 1268.394 537.016 L 1268.394 552.016 L 1268.394 567.016 L 1265.794 567.016 C 1263.494 567.016 1263.294 567.316 1263.594 570.216 C 1263.794 572.716 1264.394 573.616 1266.194 573.816 C 1268.194 574.116 1268.394 574.616 1268.394 581.116 L 1268.394 588.016 L 1273.894 588.016 L 1279.394 588.016 L 1279.394 581.016 L 1279.394 574.016 L 1288.794 574.016 C 1299.494 574.016 1299.394 573.916 1299.394 582.616 L 1299.394 588.016 L 1305.194 588.016 L 1310.894 588.016 L 1310.594 581.016 L 1310.194 574.016 L 1314.394 574.016 C 1317.694 574.016 1318.994 574.516 1320.694 576.616 C 1321.794 578.016 1324.694 580.016 1327.094 581.116 C 1330.994 582.816 1331.394 583.216 1331.394 586.516 L 1331.394 590.016 L 1336.394 590.016 L 1341.394 590.016 L 1341.394 586.116 C 1341.394 582.616 1341.694 582.216 1344.494 581.616 C 1346.194 581.316 1349.194 579.416 1351.094 577.516 C 1353.694 574.916 1355.494 574.016 1357.894 574.016 C 1360.794 574.016 1361.594 574.616 1363.794 578.516 C 1367.394 584.516 1373.594 588.116 1381.694 588.716 C 1390.894 589.516 1395.994 587.716 1401.694 581.916 C 1404.294 579.216 1406.394 576.316 1406.394 575.516 C 1406.394 574.216 1408.394 574.016 1418.794 574.016 L 1431.194 574.016 L 1432.394 577.016 C 1433.094 578.616 1435.394 581.516 1437.494 583.416 C 1447.694 592.716 1467.194 590.016 1473.994 578.516 C 1476.494 574.116 1476.694 574.016 1481.494 574.016 C 1485.294 574.016 1486.594 574.416 1487.094 575.716 C 1488.394 579.416 1492.694 584.116 1496.594 586.116 C 1501.894 588.816 1510.994 589.716 1516.794 588.016 C 1522.194 586.516 1528.594 581.316 1530.394 577.016 C 1531.294 574.916 1532.294 574.016 1533.994 574.016 C 1536.094 574.016 1536.394 573.516 1536.394 570.516 C 1536.394 568.116 1535.894 567.016 1534.894 567.016 C 1533.794 567.016 1533.394 565.816 1533.394 562.216 C 1533.394 545.316 1522.494 534.816 1506.594 536.316 C 1500.494 536.816 1494.094 539.516 1491.194 542.716 C 1488.194 546.016 1485.294 553.816 1484.694 560.516 C 1484.094 567.116 1484.094 567.116 1481.194 566.816 C 1478.294 566.516 1478.194 566.316 1477.794 560.016 C 1476.894 546.016 1468.994 537.316 1456.194 536.316 C 1440.394 535.016 1430.694 543.616 1429.594 559.716 L 1429.094 567.016 L 1418.794 567.016 L 1408.394 567.016 L 1408.394 561.916 C 1408.394 553.116 1406.494 548.016 1401.394 542.916 C 1396.294 537.816 1391.894 536.016 1384.394 536.016 C 1377.394 536.016 1372.594 537.816 1367.894 542.216 C 1362.794 546.816 1360.394 553.016 1360.294 561.416 L 1360.194 567.016 L 1356.794 567.016 C 1354.594 567.016 1353.394 566.516 1353.394 565.716 C 1353.394 562.816 1348.694 559.916 1342.294 558.916 C 1332.194 557.216 1330.194 556.616 1328.994 554.716 C 1328.094 553.216 1328.294 552.516 1330.294 550.916 C 1333.594 548.216 1338.894 548.416 1341.994 551.516 C 1343.894 553.416 1345.494 554.016 1348.894 554.016 C 1353.794 554.016 1354.194 553.416 1351.894 549.116 C 1350.594 546.516 1345.194 543.016 1342.494 543.016 C 1341.894 543.016 1341.394 541.216 1341.394 539.016 L 1341.394 535.016 L 1336.494 535.016 L 1331.494 535.016 L 1331.194 538.716 Z M 1393.094 548.216 C 1395.794 550.916 1397.294 556.216 1397.394 562.716 L 1397.394 567.016 L 1384.294 567.016 L 1371.094 567.016 L 1371.594 559.916 C 1372.394 549.016 1376.694 544.616 1385.694 545.316 C 1389.194 545.616 1391.294 546.416 1393.094 548.216 Z M 1459.794 546.216 C 1463.494 547.816 1466.394 554.516 1466.394 561.316 L 1466.394 567.016 L 1453.894 567.016 C 1439.294 567.016 1439.494 567.216 1441.194 557.216 C 1442.294 550.816 1444.194 547.416 1447.894 545.916 C 1450.894 544.716 1456.994 544.816 1459.794 546.216 Z M 1515.394 546.516 C 1519.094 548.416 1520.894 552.016 1521.794 558.616 C 1522.894 567.116 1522.994 567.016 1508.694 567.016 L 1496.094 567.016 L 1496.594 559.616 C 1497.094 551.916 1498.594 548.616 1502.594 546.316 C 1505.694 544.616 1511.894 544.716 1515.394 546.516 Z M 1297.594 547.716 C 1299.894 549.716 1299.994 555.716 1297.694 558.216 C 1296.394 559.716 1294.594 560.016 1287.694 560.016 L 1279.394 560.016 L 1279.394 553.016 L 1279.394 546.016 L 1287.594 546.016 C 1293.794 546.016 1296.194 546.416 1297.594 547.716 Z M 1341.394 575.016 C 1339.594 576.216 1334.594 576.216 1331.894 575.016 C 1330.494 574.416 1331.894 574.116 1336.394 574.116 C 1340.894 574.016 1342.394 574.316 1341.394 575.016 Z M 1393.094 576.716 C 1390.694 579.116 1389.594 579.516 1384.394 579.516 C 1379.194 579.516 1378.094 579.116 1375.694 576.716 L 1372.894 574.016 L 1384.394 574.016 L 1395.894 574.016 L 1393.094 576.716 Z M 1462.094 576.716 C 1459.694 579.116 1458.594 579.516 1453.494 579.516 C 1449.094 579.516 1447.094 579.016 1445.494 577.616 C 1444.294 576.516 1443.394 575.316 1443.394 574.816 C 1443.394 574.416 1448.194 574.016 1454.094 574.016 L 1464.894 574.016 L 1462.094 576.716 Z M 1519.394 575.016 C 1519.394 576.716 1513.094 580.016 1509.794 580.016 C 1505.394 580.016 1500.494 578.116 1499.294 575.916 C 1498.394 574.116 1498.794 574.016 1508.894 574.016 C 1515.294 574.016 1519.394 574.416 1519.394 575.016 Z" fill="#000000" stroke="none"/>
  <path d="M 1625.394 536.016 C 1625.394 536.716 1644.394 537.016 1680.394 537.016 C 1716.394 537.016 1735.394 536.716 1735.394 536.016 C 1735.394 535.316 1716.394 535.016 1680.394 535.016 C 1644.394 535.016 1625.394 535.316 1625.394 536.016 Z" fill="#000000" stroke="none"/>
  <path d="M 1625.394 542.516 C 1625.394 543.816 1631.894 544.016 1680.094 543.816 C 1722.694 543.616 1734.794 543.216 1735.194 542.216 C 1735.494 541.316 1724.094 541.016 1680.494 541.016 C 1631.994 541.016 1625.394 541.216 1625.394 542.516 Z" fill="#000000" stroke="none"/>
  <path d="M 1625.394 548.016 C 1625.394 550.016 1626.094 550.016 1680.394 550.016 C 1734.694 550.016 1735.394 550.016 1735.394 548.016 C 1735.394 546.016 1734.694 546.016 1680.394 546.016 C 1626.094 546.016 1625.394 546.016 1625.394 548.016 Z" fill="#000000" stroke="none"/>
  <path d="M 1195.694 556.416 C 1191.194 558.516 1189.094 563.116 1189.594 569.816 C 1189.994 574.516 1190.594 575.816 1193.294 578.216 C 1194.994 579.716 1197.294 581.016 1198.394 581.016 C 1200.994 581.016 1202.094 583.116 1199.994 584.216 C 1196.994 585.916 1198.094 588.216 1201.694 587.816 C 1204.494 587.516 1204.894 587.116 1205.194 584.216 C 1205.394 581.816 1205.994 581.016 1207.394 581.016 C 1210.094 581.016 1214.194 577.016 1214.994 573.716 C 1215.594 571.216 1215.394 571.016 1212.494 571.016 C 1210.794 571.016 1209.394 571.416 1209.394 572.016 C 1209.394 574.116 1205.294 577.016 1202.394 577.016 C 1197.994 577.016 1195.394 573.916 1195.394 568.716 C 1195.394 562.716 1197.594 560.016 1202.294 560.016 C 1206.094 560.016 1209.394 562.316 1209.394 564.916 C 1209.394 565.716 1210.494 566.016 1212.194 565.816 C 1214.394 565.616 1214.894 565.116 1214.594 563.016 C 1214.494 561.616 1213.294 559.416 1211.894 558.116 C 1208.894 555.116 1200.594 554.216 1195.694 556.416 Z" fill="#000000" stroke="none"/>
  <path d="M 1229.694 556.516 C 1225.194 558.416 1223.094 563.116 1223.594 569.716 C 1223.894 573.516 1224.694 575.716 1226.394 577.516 C 1232.194 583.716 1244.394 582.516 1248.194 575.316 C 1249.894 572.216 1249.694 564.416 1247.794 560.916 C 1245.094 555.616 1236.494 553.516 1229.694 556.516 Z M 1241.594 561.716 C 1244.394 564.216 1244.094 573.416 1241.194 575.416 C 1238.094 577.616 1233.794 577.416 1231.394 575.016 C 1228.894 572.516 1228.694 565.516 1230.994 562.216 C 1232.894 559.516 1238.794 559.216 1241.594 561.716 Z" fill="#000000" stroke="none"/>
  <path d="M 1100.394 568.516 L 1100.394 581.016 L 1103.394 581.016 C 1106.294 581.016 1106.394 580.816 1106.394 576.516 L 1106.394 572.016 L 1111.794 572.016 C 1118.994 572.016 1121.894 569.816 1121.894 564.216 C 1121.894 557.416 1119.694 556.016 1109.194 556.016 L 1100.394 556.016 L 1100.394 568.516 Z M 1115.194 561.216 C 1118.094 564.116 1114.994 568.016 1109.794 568.016 C 1106.494 568.016 1106.394 567.916 1106.394 564.016 C 1106.394 560.016 1106.394 560.016 1110.194 560.016 C 1112.294 560.016 1114.494 560.516 1115.194 561.216 Z" fill="#000000" stroke="none"/>
  <path d="M 1130.394 568.516 L 1130.394 581.016 L 1133.394 581.016 C 1136.294 581.016 1136.394 580.916 1136.394 576.016 L 1136.394 571.016 L 1139.794 571.016 C 1143.794 571.016 1145.094 572.316 1145.594 577.016 C 1145.894 580.016 1146.294 580.516 1148.694 580.816 C 1151.294 581.116 1151.394 581.016 1151.394 576.616 C 1151.394 573.116 1150.894 571.716 1149.394 570.816 C 1147.394 569.516 1147.394 569.516 1149.594 567.916 C 1151.194 566.716 1151.794 565.116 1151.794 562.516 C 1151.794 557.116 1149.694 556.016 1139.194 556.016 L 1130.394 556.016 L 1130.394 568.516 Z M 1145.494 561.616 C 1147.594 564.116 1145.394 566.516 1140.494 566.816 C 1136.394 567.116 1136.394 567.116 1136.394 563.616 C 1136.394 560.116 1136.494 560.016 1140.294 560.016 C 1142.594 560.016 1144.694 560.616 1145.494 561.616 Z" fill="#000000" stroke="none"/>
  <path d="M 1160.394 568.516 L 1160.394 581.016 L 1170.394 581.016 L 1180.394 581.016 L 1180.394 578.516 C 1180.394 576.116 1180.194 576.016 1173.394 576.016 L 1166.394 576.016 L 1166.394 573.016 L 1166.394 570.016 L 1172.894 570.016 C 1178.694 570.016 1179.394 569.816 1179.394 568.016 C 1179.394 566.216 1178.694 566.016 1172.894 566.016 L 1166.394 566.016 L 1166.394 563.016 L 1166.394 560.016 L 1173.394 560.016 C 1179.694 560.016 1180.394 559.816 1180.394 558.016 C 1180.394 556.116 1179.694 556.016 1170.394 556.016 L 1160.394 556.016 L 1160.394 568.516 Z" fill="#000000" stroke="none"/>
  <path d="M 1413.394 582.516 C 1413.394 586.616 1413.594 587.016 1415.894 587.016 C 1418.194 587.016 1418.394 587.416 1418.394 591.016 C 1418.394 594.616 1418.194 595.016 1415.894 595.016 C 1413.794 595.016 1413.394 595.516 1413.394 598.016 C 1413.394 601.016 1413.494 601.116 1417.194 600.416 C 1423.194 599.416 1423.894 598.116 1424.194 587.516 L 1424.594 578.016 L 1418.994 578.016 L 1413.394 578.016 L 1413.394 582.516 Z" fill="#000000" stroke="none"/>
  <text style="fill: rgb(51, 51, 51); font-family: Arvo; font-size: 34.1px; white-space: pre;" transform="matrix(1.36952, 0, 0, 1.5, -23.881144, -263.32477)" x="58.594" y="583.502">DATA_EVENTO</text>
  <text style="fill: rgb(51, 51, 51); font-family: Chilanka; font-size: 34.1px; font-weight: 700; white-space: pre;" transform="matrix(2.079019, 0, 0, 2.029412, -172.966416, -415.664309)" x="108.644" y="406.814">NOME</text>
  <text style="white-space: pre; fill: rgb(51, 51, 51); font-family: Arial, sans-serif; font-size: 34.1px;" x="1150.377" y="448.617" transform="matrix(1.794666, 0, 0, 1.588236, -1324.392952, -236.155046)">FOTO</text>
  <text style="fill: rgb(51, 51, 51); font-family: Arial, sans-serif; font-size: 34.1px; font-weight: 700; white-space: pre;" transform="matrix(1.794666, 0, 0, 1.588236, -797.52979, -554.986881)" x="1150.38" y="448.617">NUMERO</text>
  <text style="fill: rgb(255, 0, 0); font-family: 'JetBrains Mono'; font-size: 34.1px; font-weight: 700; white-space: pre;" x="55.25" y="64.028" transform="matrix(1.387585, 0, 0, 1.5, -21.414086, -15.850128)">LIVE CODE</text>
</svg>