<?xml version="1.0" encoding="utf-8"?>
<svg version="1.0" width="2000.000000pt" height="647.000000pt" viewBox="0 0 2000.000000 647.000000" preserveAspectRatio="xMidYMid meet" xmlns="http://www.w3.org/2000/svg">
  <g transform="translate(0.000000,647.000000) scale(0.100000,-0.100000)" fill="#000000" stroke="none">
    <path d="M0 5086 l0 -1384 36 -7 c103 -19 218 -98 282 -195 161 -240 74 -568 -183 -690 -33 -16 -77 -31 -97 -35 l-38 -7 0 -1384 0 -1384 670 0 670 0 0 3235 0 3235 -670 0 -670 0 0 -1384z m763 37 c43 -22 67 -83 67 -175 l0 -78 95 0 95 0 0 -30 0 -30 -245 0 -245 0 0 111 c0 149 17 186 97 215 42 15 91 11 136 -13z m257 -488 l0 -25 -201 0 c-110 0 -198 -3 -195 -8 2 -4 92 -39 200 -77 195 -70 196 -70 196 -100 0 -30 -1 -30 -193 -99 -105 -38 -196 -73 -202 -78 -5 -4 82 -8 193 -8 l202 0 0 -25 0 -25 -245 0 -245 0 0 43 0 42 205 74 c113 40 203 76 200 80 -4 3 -95 38 -203 77 l-197 70 -3 42 -3 42 245 0 246 0 0 -25z m0 -573 c0 -25 -6 -29 -65 -51 l-66 -23 3 -106 3 -106 63 -20 c57 -18 62 -22 62 -48 0 -15 -3 -28 -7 -28 -5 0 -115 37 -245 82 l-238 82 0 41 0 41 233 81 c127 45 238 82 245 82 7 1 12 -11 12 -27z m-81 -453 c48 -29 68 -57 82 -113 24 -101 -24 -201 -118 -247 -38 -18 -65 -23 -128 -23 -63 0 -90 5 -128 23 -129 63 -167 231 -75 336 33 38 62 45 73 18 4 -12 -2 -24 -18 -38 -36 -29 -47 -57 -47 -117 0 -105 65 -158 195 -158 128 0 195 53 195 153 0 60 -21 102 -63 123 -42 22 -40 19 -27 43 13 26 17 26 59 0z m-359 -529 l0 -80 220 0 220 0 0 -25 0 -25 -220 0 -220 0 0 -80 c0 -79 0 -80 -25 -80 l-25 0 0 185 0 185 25 0 c25 0 25 -1 25 -80z m320 -376 c98 -42 146 -144 120 -256 -16 -63 -75 -128 -136 -146 -52 -15 -165 -16 -215 0 -64 19 -116 71 -135 135 -40 137 30 254 169 283 53 11 150 3 197 -16z m-40 -525 c152 -34 217 -207 127 -340 -36 -53 -97 -82 -186 -87 -86 -5 -142 7 -192 41 -113 76 -113 273 0 352 60 41 160 55 251 34z m83 -533 c61 -25 71 -54 75 -208 l4 -138 -246 0 -246 0 0 116 c0 136 13 173 67 199 45 21 88 14 126 -23 19 -17 31 -23 34 -15 9 24 46 65 67 73 32 13 83 12 119 -4z"/>
    <path d="M609 5061 c-21 -17 -24 -29 -28 -105 l-3 -86 101 0 101 0 0 64 c0 73 -14 122 -40 136 -32 17 -106 12 -131 -9z"/>
    <path d="M711 3929 c-63 -21 -116 -40 -118 -42 -3 -4 227 -87 240 -87 4 0 7 38 7 85 0 47 -3 85 -7 84 -5 0 -59 -18 -122 -40z"/>
    <path d="M665 2646 c-56 -25 -79 -60 -83 -129 -2 -50 1 -69 18 -95 29 -47 89 -72 175 -72 86 0 146 25 175 72 17 26 20 45 18 95 -4 70 -27 105 -85 129 -41 18 -178 18 -218 0z"/>
    <path d="M710 2121 c-90 -19 -130 -68 -130 -159 0 -69 30 -112 95 -134 103 -35 230 -12 272 51 47 70 22 186 -47 221 -42 21 -139 32 -190 21z"/>
    <path d="M823 1585 c-29 -20 -43 -73 -43 -157 l0 -68 96 0 96 0 -4 101 c-3 92 -5 103 -27 120 -28 23 -88 25 -118 4z"/>
    <path d="M606 1549 c-24 -19 -26 -26 -26 -105 l0 -84 81 0 82 0 -6 78 c-6 93 -11 106 -43 121 -36 16 -58 14 -88 -10z"/>
    <path d="M15322 6405 c16 -187 179 -360 376 -398 48 -9 62 -16 62 -29 0 -13 8 -18 25 -18 18 0 25 5 25 20 0 15 7 20 29 20 89 0 232 76 309 164 58 66 112 200 112 278 l0 28 -471 0 -472 0 5 -65z"/>
    <path d="M4103 6165 c-11 -8 -26 -28 -32 -45 -9 -29 -8 -32 17 -41 19 -7 32 -7 44 0 25 16 49 14 120 -10 78 -25 112 -16 133 36 22 50 19 62 -17 69 -24 5 -36 2 -44 -9 -14 -19 -40 -19 -94 0 -54 19 -100 19 -127 0z"/>
    <path d="M3689 5991 c-84 -27 -113 -78 -114 -201 0 -109 19 -150 127 -265 93 -101 117 -148 118 -225 0 -72 -20 -102 -63 -98 -26 2 -34 9 -44 38 -7 19 -12 68 -12 108 l-1 72 -65 0 -65 0 0 -59 c0 -75 15 -156 38 -201 37 -72 158 -102 249 -61 67 31 87 81 88 211 0 95 -3 111 -28 161 -15 31 -61 93 -103 138 -94 103 -114 135 -114 186 0 53 23 85 60 85 39 0 50 -23 50 -109 l0 -71 66 0 67 0 -5 83 c-10 153 -51 207 -161 213 -34 2 -74 0 -88 -5z"/>
    <path d="M4665 5988 c-48 -17 -94 -67 -110 -122 -22 -72 -22 -580 0 -652 25 -86 92 -134 186 -134 86 0 148 43 176 124 16 44 18 89 18 341 0 317 -3 340 -57 401 -44 50 -137 68 -213 42z m102 -116 c28 -18 33 -69 32 -330 0 -305 -5 -335 -56 -340 -61 -6 -63 6 -63 338 0 251 2 299 16 318 15 22 48 29 71 14z"/>
    <path d="M19870 5978 c-76 -29 -160 -114 -188 -191 -49 -131 -20 -271 77 -368 60 -60 142 -99 206 -99 l35 0 0 340 0 340 -37 -1 c-21 0 -63 -10 -93 -21z"/>
    <path d="M1660 5540 l0 -450 65 0 65 0 0 450 0 450 -65 0 -65 0 0 -450z"/>
    <path d="M1937 5983 c-4 -3 -7 -206 -7 -450 l0 -443 67 0 66 0 -6 308 c-3 169 -3 302 -1 295 3 -6 31 -144 63 -305 l57 -293 52 -3 c36 -2 54 1 57 10 3 7 29 143 59 302 31 158 56 290 58 291 2 2 1 -134 0 -301 l-4 -304 61 0 61 0 0 450 0 450 -84 0 c-83 0 -84 0 -89 -27 -2 -16 -29 -160 -58 -321 -34 -184 -56 -287 -61 -275 -4 10 -32 149 -63 308 -30 160 -57 296 -60 303 -5 13 -156 18 -168 5z"/>
    <path d="M2660 5540 l0 -450 150 0 150 0 0 60 0 60 -85 0 -85 0 0 140 0 140 80 0 80 0 0 60 0 60 -80 0 -80 0 0 130 0 130 85 0 85 0 0 60 0 60 -150 0 -150 0 0 -450z"/>
    <path d="M3078 5984 c-5 -4 -8 -207 -8 -451 l0 -443 70 0 70 0 0 210 0 210 38 0 c75 0 77 -4 80 -224 l4 -196 68 0 68 0 -4 158 c-7 234 -11 260 -44 293 l-28 28 24 16 c34 22 47 84 42 200 -4 110 -17 146 -61 179 -25 19 -45 21 -170 24 -78 2 -145 0 -149 -4z m231 -118 c29 -35 25 -201 -5 -231 -9 -8 -33 -15 -55 -15 l-39 0 0 130 0 130 44 0 c26 0 48 -6 55 -14z"/>
    <path d="M4136 5963 c-3 -16 -31 -208 -61 -428 -30 -220 -57 -410 -60 -422 -5 -22 -3 -23 60 -23 74 0 71 -4 80 93 l7 67 73 0 73 0 7 -52 c14 -115 9 -108 80 -108 55 0 63 2 59 18 -2 9 -31 199 -64 422 -33 223 -63 417 -66 433 l-6 27 -88 0 -88 0 -6 -27z m153 -580 c1 -21 -3 -23 -54 -23 -65 0 -62 -20 -35 201 33 271 30 269 61 44 15 -110 28 -210 28 -222z"/>
    <path d="M15760 5835 c0 -73 1 -75 25 -75 24 0 25 2 25 75 0 73 -1 75 -25 75 -24 0 -25 -2 -25 -75z"/>
    <path d="M16650 5792 l0 -22 460 0 c402 0 460 2 460 15 0 13 -46 15 -353 15 -195 0 -402 3 -460 7 -105 6 -107 6 -107 -15z"/>
    <path d="M15767 5713 c-4 -3 -7 -37 -7 -75 0 -66 1 -68 25 -68 24 0 25 2 25 75 0 66 -2 75 -18 75 -10 0 -22 -3 -25 -7z"/>
    <path d="M16650 5700 c0 -7 160 -10 460 -10 300 0 460 3 460 10 0 7 -160 10 -460 10 -300 0 -460 -3 -460 -10z"/>
    <path d="M16878 5613 c127 -2 337 -2 465 0 127 1 23 2 -233 2 -256 0 -360 -1 -232 -2z"/>
    <path d="M16650 5525 l0 -25 460 0 460 0 0 25 0 25 -460 0 -460 0 0 -25z"/>
    <path d="M8245 5505 c-40 -21 -83 -63 -101 -97 -8 -15 -14 -56 -14 -93 0 -72 13 -105 57 -147 83 -79 217 -75 295 8 37 40 48 74 48 148 0 72 -19 108 -83 160 -33 26 -48 31 -105 34 -48 2 -76 -2 -97 -13z"/>
    <path d="M15760 5445 c0 -73 1 -75 25 -75 24 0 25 2 25 75 0 73 -1 75 -25 75 -24 0 -25 -2 -25 -75z"/>
    <path d="M16650 5440 c0 -20 7 -20 460 -20 453 0 460 0 460 20 0 20 -7 20 -460 20 -453 0 -460 0 -460 -20z"/>
    <path d="M16878 5353 c127 -2 337 -2 465 0 127 1 23 2 -233 2 -256 0 -360 -1 -232 -2z"/>
    <path d="M15762 5248 c3 -67 5 -73 26 -76 21 -3 22 0 22 72 0 75 0 76 -25 76 -26 0 -26 -1 -23 -72z"/>
    <path d="M16650 5270 c0 -20 7 -20 460 -20 453 0 460 0 460 20 0 20 -7 20 -460 20 -453 0 -460 0 -460 -20z"/>
    <path d="M16650 5180 c0 -7 160 -10 460 -10 300 0 460 3 460 10 0 7 -160 10 -460 10 -300 0 -460 -3 -460 -10z"/>
    <path d="M15767 5123 c-4 -3 -7 -37 -7 -75 0 -66 1 -68 25 -68 24 0 25 2 25 75 0 66 -2 75 -18 75 -10 0 -22 -3 -25 -7z"/>
    <path d="M16878 5093 c127 -2 337 -2 465 0 127 1 23 2 -233 2 -256 0 -360 -1 -232 -2z"/>
    <path d="M16650 5010 c0 -7 160 -10 460 -10 300 0 460 3 460 10 0 7 -160 10 -460 10 -300 0 -460 -3 -460 -10z"/>
    <path d="M15760 4855 c0 -73 1 -75 25 -75 24 0 25 2 25 75 0 73 -1 75 -25 75 -24 0 -25 -2 -25 -75z"/>
    <path d="M16650 4920 c0 -7 160 -10 460 -10 300 0 460 3 460 10 0 7 -160 10 -460 10 -300 0 -460 -3 -460 -10z"/>
    <path d="M16650 4835 l0 -35 460 0 460 0 0 35 0 35 -460 0 -460 0 0 -35z"/>
    <path d="M19898 4776 c-106 -38 -191 -120 -223 -217 -13 -38 -16 -73 -13 -133 5 -94 32 -157 95 -220 50 -50 145 -96 201 -96 l42 0 0 340 0 340 -32 0 c-18 -1 -49 -7 -70 -14z"/>
    <path d="M16650 4750 c0 -7 160 -10 460 -10 300 0 460 3 460 10 0 7 -160 10 -460 10 -300 0 -460 -3 -460 -10z"/>
    <path d="M15767 4733 c-4 -3 -7 -37 -7 -75 0 -66 1 -68 25 -68 24 0 25 2 25 75 0 66 -2 75 -18 75 -10 0 -22 -3 -25 -7z"/>
    <path d="M16650 4660 c0 -7 160 -10 460 -10 300 0 460 3 460 10 0 7 -160 10 -460 10 -300 0 -460 -3 -460 -10z"/>
    <path d="M3767 4636 c-49 -18 -74 -41 -101 -91 -20 -38 -21 -56 -24 -328 -3 -240 0 -297 13 -342 40 -138 173 -189 263 -99 40 40 42 40 42 15 0 -37 12 -51 41 -51 l29 0 0 245 0 245 -95 0 -95 0 0 -50 0 -50 36 0 36 0 -4 -119 c-2 -101 -6 -122 -22 -140 -14 -15 -29 -21 -50 -19 -54 5 -56 21 -54 351 3 282 4 299 22 313 27 19 60 18 79 -4 12 -13 17 -42 19 -102 l3 -85 64 -3 64 -3 -5 104 c-5 116 -26 170 -80 201 -40 24 -133 30 -181 12z"/>
    <path d="M1717 4596 c-20 -25 -53 -50 -72 -57 -33 -12 -35 -15 -35 -61 0 -43 2 -48 23 -48 12 0 35 7 51 15 15 8 30 15 32 15 2 0 4 -162 4 -360 l0 -360 65 0 65 0 0 450 0 450 -48 0 c-44 0 -50 -3 -85 -44z"/>
    <path d="M2620 4634 c0 -11 130 -849 135 -871 5 -22 10 -23 88 -23 l84 0 62 438 c34 240 62 443 61 450 0 8 -19 12 -60 12 -54 0 -60 -2 -65 -22 -2 -13 -18 -144 -35 -293 -17 -148 -34 -295 -38 -325 l-8 -55 -12 100 c-19 147 -72 525 -78 563 l-6 32 -64 0 c-35 0 -64 -3 -64 -6z"/>
    <path d="M3235 4618 c-2 -13 -30 -201 -60 -418 -31 -217 -58 -410 -62 -427 l-5 -33 65 0 65 0 6 40 c3 22 9 58 12 80 l6 40 73 0 73 0 8 -77 9 -78 63 -3 c49 -2 62 0 62 12 0 8 -29 207 -65 442 -36 235 -65 431 -65 436 0 4 -40 8 -90 8 -85 0 -90 -1 -95 -22z m127 -395 c15 -114 26 -208 24 -210 -2 -2 -28 -3 -57 -1 l-54 3 24 208 c14 114 27 207 30 207 4 0 19 -93 33 -207z"/>
    <path d="M4245 4618 c-2 -13 -30 -201 -60 -418 -31 -217 -58 -410 -62 -427 l-5 -33 65 0 65 0 6 40 c3 22 9 58 12 80 l6 40 73 0 73 0 8 -77 9 -78 63 -3 c49 -2 62 0 62 12 0 8 -29 207 -65 442 -36 235 -65 431 -65 436 0 4 -40 8 -90 8 -85 0 -90 -1 -95 -22z m127 -395 c15 -114 26 -208 24 -210 -2 -2 -28 -3 -57 -1 l-54 3 24 208 c14 114 27 207 30 207 4 0 19 -93 33 -207z"/>
    <path d="M4847 4634 c-4 -4 -7 -207 -7 -451 l0 -443 66 0 65 0 -3 269 c-2 148 -1 268 1 266 2 -2 45 -122 96 -267 l92 -263 52 -3 51 -3 0 450 0 451 -67 0 -66 0 6 -262 c3 -145 3 -256 0 -248 -4 8 -45 125 -93 260 l-87 245 -49 3 c-27 2 -53 0 -57 -4z"/>
    <path d="M5475 4618 c-2 -13 -30 -201 -60 -418 -31 -217 -58 -410 -62 -427 l-5 -33 65 0 65 0 6 40 c3 22 9 58 12 80 l6 40 73 0 73 0 8 -77 9 -78 63 -3 c49 -2 62 0 62 12 0 8 -29 207 -65 442 -36 235 -65 431 -65 436 0 4 -40 8 -90 8 -85 0 -90 -1 -95 -22z m127 -395 c15 -114 26 -208 24 -210 -2 -2 -28 -3 -57 -1 l-54 3 24 208 c14 114 27 207 30 207 4 0 19 -93 33 -207z"/>
    <path d="M16650 4575 c0 -13 58 -15 460 -15 402 0 460 2 460 15 0 13 -58 15 -460 15 -402 0 -460 -2 -460 -15z"/>
    <path d="M2093 4544 c-39 -19 -62 -66 -65 -130 l-3 -49 53 -3 52 -3 0 43 c0 49 13 68 46 68 27 0 34 -17 34 -83 l0 -52 -47 -17 c-118 -43 -147 -82 -146 -199 0 -88 16 -143 46 -164 30 -21 89 -19 120 5 25 20 25 20 30 0 4 -17 14 -20 56 -20 l51 0 0 253 c0 228 -2 256 -20 295 -14 31 -29 47 -54 57 -46 19 -113 19 -153 -1z m97 -508 c-16 -16 -24 -18 -38 -10 -23 15 -36 93 -26 151 7 38 16 52 44 71 l35 23 3 -107 c2 -97 1 -110 -18 -128z"/>
    <path d="M15760 4465 c0 -73 1 -75 25 -75 24 0 25 2 25 75 0 73 -1 75 -25 75 -24 0 -25 -2 -25 -75z"/>
    <path d="M16650 4490 c0 -20 7 -20 460 -20 453 0 460 0 460 20 0 20 -7 20 -460 20 -453 0 -460 0 -460 -20z"/>
    <path d="M16650 4400 c0 -7 160 -10 460 -10 300 0 460 3 460 10 0 7 -160 10 -460 10 -300 0 -460 -3 -460 -10z"/>
    <path d="M15762 4268 c3 -67 5 -73 26 -76 21 -3 22 0 22 72 0 75 0 76 -25 76 -26 0 -26 -1 -23 -72z"/>
    <path d="M16878 4313 c127 -2 337 -2 465 0 127 1 23 2 -233 2 -256 0 -360 -1 -232 -2z"/>
    <path d="M16650 4230 c0 -20 7 -20 460 -20 453 0 460 0 460 20 0 20 -7 20 -460 20 -453 0 -460 0 -460 -20z"/>
    <path d="M15760 4075 c0 -73 1 -75 25 -75 24 0 25 2 25 75 0 73 -1 75 -25 75 -24 0 -25 -2 -25 -75z"/>
    <path d="M16650 4140 c0 -7 160 -10 460 -10 300 0 460 3 460 10 0 7 -160 10 -460 10 -300 0 -460 -3 -460 -10z"/>
    <path d="M16878 4053 c127 -2 337 -2 465 0 127 1 23 2 -233 2 -256 0 -360 -1 -232 -2z"/>
    <path d="M16650 3965 l0 -25 460 0 460 0 0 25 0 25 -460 0 -460 0 0 -25z"/>
    <path d="M15760 3875 c0 -73 1 -75 25 -75 24 0 25 2 25 75 0 73 -1 75 -25 75 -24 0 -25 -2 -25 -75z"/>
    <path d="M16650 3880 c0 -20 7 -20 460 -20 453 0 460 0 460 20 0 20 -7 20 -460 20 -453 0 -460 0 -460 -20z"/>
    <path d="M16878 3793 c127 -2 337 -2 465 0 127 1 23 2 -233 2 -256 0 -360 -1 -232 -2z"/>
    <path d="M15767 3753 c-4 -3 -7 -37 -7 -75 0 -66 1 -68 25 -68 24 0 25 2 25 75 0 66 -2 75 -18 75 -10 0 -22 -3 -25 -7z"/>
    <path d="M16650 3710 c0 -7 160 -10 460 -10 300 0 460 3 460 10 0 7 -160 10 -460 10 -300 0 -460 -3 -460 -10z"/>
    <path d="M16650 3620 c0 -7 160 -10 460 -10 300 0 460 3 460 10 0 7 -160 10 -460 10 -300 0 -460 -3 -460 -10z"/>
    <path d="M19908 3566 c-104 -28 -200 -118 -235 -222 -23 -67 -14 -194 18 -259 48 -99 154 -176 262 -191 l47 -7 0 347 0 346 -22 -1 c-13 0 -44 -6 -70 -13z"/>
    <path d="M16650 3535 l0 -35 460 0 460 0 0 35 0 35 -460 0 -460 0 0 -35z"/>
    <path d="M15760 3485 c0 -73 1 -75 25 -75 24 0 25 2 25 75 0 73 -1 75 -25 75 -24 0 -25 -2 -25 -75z"/>
    <path d="M6435 3449 c-14 -18 -25 -39 -23 -48 4 -21 60 -41 65 -23 7 18 51 15 116 -8 31 -11 63 -20 71 -20 27 0 67 44 72 81 6 35 5 37 -26 44 -24 5 -34 3 -45 -11 -13 -18 -16 -18 -78 -1 -95 25 -120 23 -152 -14z"/>
    <path d="M16650 3450 c0 -7 160 -10 460 -10 300 0 460 3 460 10 0 7 -160 10 -460 10 -300 0 -460 -3 -460 -10z"/>
    <path d="M16650 3360 c0 -7 160 -10 460 -10 300 0 460 3 460 10 0 7 -160 10 -460 10 -300 0 -460 -3 -460 -10z"/>
    <path d="M15762 3288 c3 -67 5 -73 26 -76 21 -3 22 0 22 72 0 75 0 76 -25 76 -26 0 -26 -1 -23 -72z"/>
    <path d="M16650 3275 l0 -35 460 0 460 0 0 35 0 35 -460 0 -460 0 0 -35z"/>
    <path d="M2765 3288 c-48 -17 -94 -67 -110 -122 -22 -72 -22 -580 0 -652 25 -86 92 -134 186 -134 86 0 148 43 176 124 16 44 18 89 18 341 0 317 -3 340 -57 401 -44 50 -137 68 -213 42z m102 -116 c28 -18 33 -69 32 -330 0 -305 -5 -335 -56 -340 -61 -6 -63 6 -63 338 0 251 2 299 16 318 15 22 48 29 71 14z"/>
    <path d="M3277 3286 c-49 -18 -74 -41 -101 -91 -20 -38 -21 -56 -24 -328 -3 -240 0 -297 13 -342 40 -138 173 -189 263 -99 40 40 42 40 42 15 0 -37 12 -51 41 -51 l29 0 0 245 0 245 -95 0 -95 0 0 -50 0 -50 36 0 36 0 -4 -119 c-2 -101 -6 -122 -22 -140 -14 -15 -29 -21 -50 -19 -54 5 -56 21 -54 351 3 282 4 299 22 313 27 19 60 18 79 -4 12 -13 17 -42 19 -102 l3 -85 64 -3 64 -3 -5 104 c-5 116 -26 170 -80 201 -40 24 -133 30 -181 12z"/>
    <path d="M6017 3286 c-48 -18 -64 -32 -88 -77 -32 -64 -41 -166 -38 -423 l4 -241 30 -60 c23 -47 39 -64 70 -80 22 -11 42 -21 43 -22 2 -1 0 -22 -6 -46 -9 -43 -8 -44 25 -62 34 -19 47 -45 41 -86 -3 -24 -33 -44 -80 -54 -23 -4 -28 -11 -28 -34 0 -24 5 -29 33 -34 97 -15 182 39 182 116 0 54 -24 91 -75 117 -33 17 -40 26 -40 49 0 26 4 29 45 36 103 15 145 93 145 267 l0 108 -64 0 -64 0 -3 -113 c-5 -129 -14 -150 -63 -145 -52 5 -58 41 -54 359 3 256 4 279 22 298 11 12 29 21 41 21 39 0 49 -26 53 -136 l4 -104 64 0 64 0 0 93 c0 148 -28 213 -104 248 -48 22 -106 23 -159 5z"/>
    <path d="M7007 3285 c-52 -18 -83 -49 -104 -104 -16 -40 -18 -82 -18 -336 0 -305 4 -336 48 -399 45 -65 167 -86 248 -43 32 17 50 37 69 72 l25 49 0 316 0 315 -25 50 c-42 84 -142 117 -243 80z m117 -127 c14 -19 16 -67 16 -318 0 -332 -2 -344 -63 -338 -53 5 -59 40 -55 359 3 256 4 279 22 298 25 27 61 27 80 -1z"/>
    <path d="M1650 2841 l0 -451 70 0 70 0 0 175 0 175 35 0 c65 0 131 20 158 48 42 44 60 127 55 256 -3 91 -8 120 -27 159 -35 71 -60 81 -223 85 l-138 4 0 -451z m237 313 c13 -20 17 -49 17 -134 0 -133 -13 -160 -74 -160 l-40 0 0 160 0 160 40 0 c32 0 43 -5 57 -26z"/>
    <path d="M2138 3284 c-5 -4 -8 -207 -8 -451 l0 -443 70 0 70 0 0 210 0 210 38 0 c75 0 77 -4 80 -224 l4 -196 68 0 68 0 -4 158 c-7 234 -11 260 -44 293 l-28 28 24 16 c34 22 47 84 42 200 -4 110 -17 146 -61 179 -25 19 -45 21 -170 24 -78 2 -145 0 -149 -4z m231 -118 c29 -35 25 -201 -5 -231 -9 -8 -33 -15 -55 -15 l-39 0 0 130 0 130 44 0 c26 0 48 -6 55 -14z"/>
    <path d="M3670 2841 l0 -451 70 0 70 0 0 210 0 210 38 0 c67 0 72 -13 72 -197 0 -88 3 -175 6 -192 6 -31 7 -31 71 -31 l65 0 -4 193 c-3 158 -7 199 -22 229 -10 21 -26 40 -37 43 -17 6 -16 9 10 31 22 18 33 40 42 82 14 69 5 201 -17 248 -29 61 -52 69 -216 72 l-148 4 0 -451z m234 323 c12 -12 16 -37 16 -107 0 -114 -12 -137 -71 -137 l-39 0 0 130 0 130 39 0 c23 0 46 -7 55 -16z"/>
    <path d="M4270 3278 c-1 -7 -29 -210 -64 -450 l-62 -438 67 0 67 0 7 80 7 80 73 0 73 0 5 -32 c3 -18 9 -54 13 -80 l6 -48 64 0 c35 0 64 1 64 3 -1 1 -31 202 -68 447 l-68 445 -92 3 c-70 2 -92 0 -92 -10z m128 -410 l28 -208 -58 0 c-32 0 -58 4 -58 8 0 5 11 98 25 208 14 109 25 206 26 214 2 28 9 -9 37 -222z"/>
    <path d="M4687 3283 c-4 -3 -7 -206 -7 -450 l0 -443 67 0 66 0 -6 308 c-3 169 -3 302 -1 295 3 -6 31 -144 63 -305 l57 -293 52 -3 c36 -2 54 1 57 10 3 7 29 143 59 302 31 158 56 290 58 291 2 2 1 -134 0 -301 l-4 -304 61 0 61 0 0 450 0 450 -84 0 c-83 0 -84 0 -89 -27 -2 -16 -29 -160 -58 -321 -34 -184 -56 -287 -61 -275 -4 10 -32 149 -63 308 -30 160 -57 296 -60 303 -5 13 -156 18 -168 5z"/>
    <path d="M5432 2848 c-34 -244 -62 -446 -62 -450 0 -5 29 -8 64 -8 l64 0 7 63 c11 101 7 97 85 97 77 0 75 3 85 -93 l7 -67 65 0 66 0 -6 28 c-2 15 -33 217 -68 450 l-63 422 -91 0 -90 0 -63 -442z m183 61 c13 -101 27 -199 30 -216 l6 -33 -61 0 -62 0 6 28 c3 15 15 113 27 219 13 106 24 191 26 189 1 -1 14 -85 28 -187z"/>
    <path d="M6422 2848 c-34 -244 -62 -446 -62 -450 0 -5 29 -8 64 -8 l64 0 7 63 c11 101 7 97 85 97 77 0 75 3 85 -93 l7 -67 65 0 66 0 -6 28 c-2 15 -33 217 -68 450 l-63 422 -91 0 -90 0 -63 -442z m183 61 c13 -101 27 -199 30 -216 l6 -33 -61 0 -62 0 6 28 c3 15 15 113 27 219 13 106 24 191 26 189 1 -1 14 -85 28 -187z"/>
    <path d="M16650 3190 c0 -7 160 -10 460 -10 300 0 460 3 460 10 0 7 -160 10 -460 10 -300 0 -460 -3 -460 -10z"/>
    <path d="M15760 3095 c0 -73 1 -75 25 -75 24 0 25 2 25 75 0 73 -1 75 -25 75 -24 0 -25 -2 -25 -75z"/>
    <path d="M16650 3100 c0 -7 160 -10 460 -10 300 0 460 3 460 10 0 7 -160 10 -460 10 -300 0 -460 -3 -460 -10z"/>
    <path d="M16650 3015 l0 -35 460 0 460 0 0 35 0 35 -460 0 -460 0 0 -35z"/>
    <path d="M15762 2898 c3 -67 5 -73 26 -76 21 -3 22 0 22 72 0 75 0 76 -25 76 -26 0 -26 -1 -23 -72z"/>
    <path d="M16650 2925 c0 -13 58 -15 460 -15 402 0 460 2 460 15 0 13 -58 15 -460 15 -402 0 -460 -2 -460 -15z"/>
    <path d="M16650 2845 l0 -25 460 0 460 0 0 25 0 25 -460 0 -460 0 0 -25z"/>
    <path d="M15767 2773 c-4 -3 -7 -37 -7 -75 0 -66 1 -68 25 -68 24 0 25 2 25 75 0 66 -2 75 -18 75 -10 0 -22 -3 -25 -7z"/>
    <path d="M16650 2750 c0 -7 160 -10 460 -10 300 0 460 3 460 10 0 7 -160 10 -460 10 -300 0 -460 -3 -460 -10z"/>
    <path d="M16650 2665 c0 -13 58 -15 460 -15 402 0 460 2 460 15 0 13 -58 15 -460 15 -402 0 -460 -2 -460 -15z"/>
    <path d="M16650 2585 l0 -25 460 0 460 0 0 25 0 25 -460 0 -460 0 0 -25z"/>
    <path d="M15760 2505 c0 -73 1 -75 25 -75 24 0 25 2 25 75 0 73 -1 75 -25 75 -24 0 -25 -2 -25 -75z"/>
    <path d="M16650 2490 c0 -7 160 -10 460 -10 300 0 460 3 460 10 0 7 -160 10 -460 10 -300 0 -460 -3 -460 -10z"/>
    <path d="M16650 2405 c0 -13 58 -15 460 -15 402 0 460 2 460 15 0 13 -58 15 -460 15 -402 0 -460 -2 -460 -15z"/>
    <path d="M15760 2310 c0 -68 1 -70 25 -70 24 0 25 2 25 70 0 68 -1 70 -25 70 -24 0 -25 -2 -25 -70z"/>
    <path d="M19855 2331 c-72 -34 -128 -88 -163 -156 -37 -72 -43 -197 -12 -277 40 -107 159 -202 271 -215 l49 -6 0 342 0 341 -42 0 c-27 0 -66 -11 -103 -29z"/>
    <path d="M16650 2320 c0 -7 160 -10 460 -10 300 0 460 3 460 10 0 7 -160 10 -460 10 -300 0 -460 -3 -460 -10z"/>
    <path d="M16650 2235 l0 -25 460 0 460 0 0 25 0 25 -460 0 -460 0 0 -25z"/>
    <path d="M15760 2115 c0 -73 1 -75 25 -75 24 0 25 2 25 75 0 73 -1 75 -25 75 -24 0 -25 -2 -25 -75z"/>
    <path d="M16650 2150 c0 -7 160 -10 460 -10 300 0 460 3 460 10 0 7 -160 10 -460 10 -300 0 -460 -3 -460 -10z"/>
    <path d="M16650 2060 l0 -30 460 0 460 0 0 30 0 30 -460 0 -460 0 0 -30z"/>
    <path d="M15762 1918 c3 -67 5 -73 26 -76 21 -3 22 0 22 72 0 75 0 76 -25 76 -26 0 -26 -1 -23 -72z"/>
    <path d="M16650 1970 c0 -7 160 -10 460 -10 300 0 460 3 460 10 0 7 -160 10 -460 10 -300 0 -460 -3 -460 -10z"/>
    <path d="M16650 1885 l0 -35 460 0 460 0 0 35 0 35 -460 0 -460 0 0 -35z"/>
    <path d="M16650 1800 c0 -7 160 -10 460 -10 300 0 460 3 460 10 0 7 -160 10 -460 10 -300 0 -460 -3 -460 -10z"/>
    <path d="M15767 1793 c-4 -3 -7 -37 -7 -75 0 -66 1 -68 25 -68 24 0 25 2 25 75 0 66 -2 75 -18 75 -10 0 -22 -3 -25 -7z"/>
    <path d="M16650 1710 c0 -7 160 -10 460 -10 300 0 460 3 460 10 0 7 -160 10 -460 10 -300 0 -460 -3 -460 -10z"/>
    <path d="M16650 1630 c0 -7 160 -10 460 -10 300 0 460 3 460 10 0 7 -160 10 -460 10 -300 0 -460 -3 -460 -10z"/>
    <path d="M15760 1525 c0 -73 1 -75 25 -75 24 0 25 2 25 75 0 73 -1 75 -25 75 -24 0 -25 -2 -25 -75z"/>
    <path d="M16650 1540 l0 -30 460 0 460 0 0 30 0 30 -460 0 -460 0 0 -30z"/>
    <path d="M16650 1450 c0 -7 160 -10 460 -10 300 0 460 3 460 10 0 7 -160 10 -460 10 -300 0 -460 -3 -460 -10z"/>
    <path d="M15767 1403 c-4 -3 -7 -37 -7 -75 0 -66 1 -68 25 -68 24 0 25 2 25 75 0 66 -2 75 -18 75 -10 0 -22 -3 -25 -7z"/>
    <path d="M16650 1370 c0 -7 160 -10 460 -10 300 0 460 3 460 10 0 7 -160 10 -460 10 -300 0 -460 -3 -460 -10z"/>
    <path d="M16650 1280 l0 -30 460 0 460 0 0 30 0 30 -460 0 -460 0 0 -30z"/>
    <path d="M15760 1135 c0 -73 1 -75 25 -75 24 0 25 2 25 75 0 73 -1 75 -25 75 -24 0 -25 -2 -25 -75z"/>
    <path d="M16650 1190 c0 -7 160 -10 460 -10 300 0 460 3 460 10 0 7 -160 10 -460 10 -300 0 -460 -3 -460 -10z"/>
    <path d="M19898 1136 c-106 -38 -191 -120 -223 -217 -13 -38 -16 -73 -13 -133 5 -94 32 -157 95 -220 50 -50 145 -96 201 -96 l42 0 0 340 0 340 -32 0 c-18 -1 -49 -7 -70 -14z"/>
    <path d="M16650 1110 c0 -7 160 -10 460 -10 300 0 460 3 460 10 0 7 -160 10 -460 10 -300 0 -460 -3 -460 -10z"/>
    <path d="M16650 1020 c0 -20 7 -20 460 -20 453 0 460 0 460 20 0 20 -7 20 -460 20 -453 0 -460 0 -460 -20z"/>
    <path d="M15762 938 c3 -67 5 -73 26 -76 21 -3 22 0 22 72 0 75 0 76 -25 76 -26 0 -26 -1 -23 -72z"/>
    <path d="M16650 930 c0 -7 160 -10 460 -10 300 0 460 3 460 10 0 7 -160 10 -460 10 -300 0 -460 -3 -460 -10z"/>
    <path d="M16650 850 c0 -7 160 -10 460 -10 300 0 460 3 460 10 0 7 -160 10 -460 10 -300 0 -460 -3 -460 -10z"/>
    <path d="M15767 813 c-4 -3 -7 -37 -7 -75 0 -66 1 -68 25 -68 24 0 25 2 25 75 0 66 -2 75 -18 75 -10 0 -22 -3 -25 -7z"/>
    <path d="M16650 760 c0 -7 160 -10 460 -10 300 0 460 3 460 10 0 7 -160 10 -460 10 -300 0 -460 -3 -460 -10z"/>
    <path d="M16650 675 c0 -13 58 -15 460 -15 402 0 460 2 460 15 0 13 -58 15 -460 15 -402 0 -460 -2 -460 -15z"/>
    <path d="M15760 547 l0 -72 -60 -12 c-76 -14 -173 -60 -226 -107 -84 -73 -154 -212 -154 -306 l0 -50 470 0 470 0 0 28 c0 42 -27 136 -54 190 -32 63 -104 142 -166 182 -55 35 -155 70 -201 70 l-29 0 0 75 c0 73 -1 75 -25 75 -24 0 -25 -2 -25 -73z"/>
    <path d="M8642 583 c-54 -19 -48 -29 18 -24 40 2 50 6 48 19 -4 22 -17 23 -66 5z"/>
    <path d="M9780 527 c-72 -26 -104 -132 -60 -204 23 -38 44 -51 96 -58 87 -11 154 47 154 134 0 50 -26 103 -58 120 -33 17 -95 21 -132 8z m105 -62 c52 -51 18 -155 -50 -155 -14 0 -37 11 -50 25 -52 51 -18 155 50 155 14 0 37 -11 50 -25z"/>
    <path d="M10684 526 c-51 -22 -74 -61 -74 -123 0 -83 25 -118 98 -138 29 -8 89 11 102 33 8 15 9 14 10 -5 0 -18 6 -23 25 -23 24 0 25 2 25 70 l0 70 -75 0 c-68 0 -75 -2 -75 -19 0 -17 8 -20 53 -23 l52 -3 -27 -27 c-33 -34 -79 -37 -108 -8 -15 15 -20 33 -20 70 0 37 5 55 20 70 33 33 120 21 120 -15 0 -10 10 -15 30 -15 39 0 41 31 5 64 -39 37 -106 46 -161 22z"/>
    <path d="M11482 526 c-40 -18 -55 -54 -41 -95 11 -31 34 -43 112 -56 21 -3 41 -13 44 -21 17 -45 -75 -62 -103 -19 -19 30 -64 35 -64 7 0 -75 146 -107 207 -46 28 28 29 63 3 97 -16 20 -33 27 -75 32 -61 8 -85 26 -65 50 19 23 77 19 90 -5 14 -26 60 -27 60 -2 0 52 -103 87 -168 58z"/>
    <path d="M11742 526 c-40 -18 -55 -54 -41 -95 11 -31 34 -43 112 -56 21 -3 41 -13 44 -21 17 -45 -75 -62 -103 -19 -19 30 -64 35 -64 7 0 -75 146 -107 207 -46 28 28 29 63 3 97 -16 20 -33 27 -75 32 -61 8 -85 26 -65 50 19 23 77 19 90 -5 14 -26 60 -27 60 -2 0 52 -103 87 -168 58z"/>
    <path d="M12024 522 c-31 -15 -45 -29 -57 -61 -21 -52 -21 -70 -1 -121 20 -49 61 -74 124 -74 63 0 104 25 124 74 9 22 16 49 16 60 0 35 -31 98 -56 115 -39 25 -103 28 -150 7z m116 -50 c18 -15 22 -28 22 -71 0 -66 -17 -86 -73 -86 -53 0 -69 22 -69 91 0 43 4 56 22 68 30 21 71 20 98 -2z"/>
    <path d="M8240 400 l0 -130 30 0 29 0 3 102 3 102 45 -102 45 -102 52 0 53 0 0 130 0 130 -30 0 -30 0 -1 -102 -1 -103 -48 103 -49 102 -50 0 -51 0 0 -130z"/>
    <path d="M8540 435 c0 -52 5 -105 11 -118 19 -43 87 -64 149 -47 60 16 70 38 70 157 l0 103 -30 0 -30 0 0 -100 c0 -88 -2 -100 -19 -110 -28 -14 -57 -12 -75 6 -12 12 -16 37 -16 110 l0 94 -30 0 -30 0 0 -95z"/>
    <path d="M8820 400 l0 -130 30 0 30 0 1 103 0 102 32 -102 32 -103 36 0 35 0 31 98 31 97 1 -97 1 -98 30 0 30 0 0 130 0 130 -49 0 -49 0 -20 -67 c-12 -38 -24 -81 -28 -96 -9 -39 -17 -27 -48 76 l-27 87 -49 0 -50 0 0 -130z"/>
    <path d="M9190 400 l0 -130 106 0 c104 0 105 0 102 23 -3 20 -9 22 -75 25 l-73 3 0 29 0 30 65 0 c63 0 65 1 65 25 0 24 -2 25 -65 25 -63 0 -65 1 -65 25 0 24 2 25 70 25 68 0 70 1 70 25 l0 25 -100 0 -100 0 0 -130z"/>
    <path d="M9440 400 l0 -130 30 0 c29 0 30 1 30 51 l0 50 43 -3 c42 -3 42 -3 51 -50 9 -44 12 -48 37 -48 28 0 29 1 23 48 -4 26 -13 52 -21 59 -13 10 -12 14 6 32 21 21 28 66 13 87 -16 24 -54 34 -131 34 l-81 0 0 -130z m158 56 c5 -26 -24 -46 -65 -46 -31 0 -33 2 -33 36 l0 35 47 -3 c38 -2 49 -7 51 -22z"/>
    <path d="M10110 505 c0 -20 5 -25 25 -25 25 0 25 -1 25 -80 0 -79 0 -80 -25 -80 -20 0 -25 -5 -25 -25 0 -25 1 -25 81 -25 78 0 80 1 77 23 -2 14 -11 23 -25 25 -22 3 -23 8 -23 82 0 74 1 79 23 82 14 2 23 11 25 26 3 21 1 22 -77 22 -80 0 -81 0 -81 -25z"/>
    <path d="M10310 400 l0 -130 30 0 29 0 3 102 3 102 45 -102 45 -102 52 0 53 0 0 130 0 130 -30 0 -30 0 -1 -102 -1 -103 -48 103 -49 102 -50 0 -51 0 0 -130z"/>
    <path d="M10920 400 l0 -130 30 0 c29 0 30 1 30 50 l0 50 40 0 c44 0 60 -18 60 -69 0 -28 3 -31 30 -31 28 0 30 2 30 39 0 23 -8 48 -18 61 -18 23 -18 24 0 42 10 10 18 32 18 52 0 53 -27 66 -132 66 l-88 0 0 -130z m158 56 c5 -26 -24 -46 -65 -46 -31 0 -33 2 -33 36 l0 35 47 -3 c38 -2 49 -7 51 -22z"/>
    <path d="M11190 400 l0 -130 100 0 100 0 0 25 c0 24 -2 25 -75 25 l-75 0 0 30 0 30 71 0 c67 0 70 1 67 23 -3 20 -9 22 -70 25 -65 3 -68 4 -68 27 0 24 2 25 75 25 73 0 75 1 75 25 l0 25 -100 0 -100 0 0 -130z"/>
    <path d="M12254 455 c-10 -25 4 -45 31 -45 21 0 25 5 25 30 0 25 -4 30 -25 30 -14 0 -28 -7 -31 -15z"/>
    <path d="M12250 295 c0 -21 5 -25 30 -25 25 0 30 4 30 25 0 21 -5 25 -30 25 -25 0 -30 -4 -30 -25z"/>
  </g>
  <text style="fill: rgb(25, 193, 168); font-family: &quot;Droid Serif&quot;; font-size: 50px; font-weight: 700; white-space: pre;" x="161.151" y="535.567">DATA_EVENTO</text>
  <text style="fill: rgb(51, 51, 51); font-family: &quot;JetBrains Mono&quot;; font-size: 60px; font-weight: 700; white-space: pre;" x="873.476" y="133.143">NOME</text>
  <text style="fill: rgb(51, 51, 51); font-family: Arial, sans-serif; font-size: 96px; white-space: pre;" x="998.327" y="367.24">FOTO</text>
  <text style="fill: rgb(184, 37, 37); font-family: C059; font-size: 40px; font-weight: 700; paint-order: stroke; text-transform: uppercase; white-space: pre;" x="1238" y="621.404">NUMERO</text>
</svg>