<?xml version="1.0" encoding="utf-8"?>
<svg xmlns="http://www.w3.org/2000/svg" xmlns:xlink="http://www.w3.org/1999/xlink" version="1.1" x="0px" y="0px" style="enable-background:new 0 0 1024 1094;" viewBox="116.374 9.598 799.651 413.753">
  <defs>
    <path id="path-0" d="M 200.43 282.582 C 248.646 253.455 253.218 237.856 253.218 212.998 C 253.218 193.608 252.574 180.429 249.619 168.608 C 245.379 155.89 238.821 139.474 238.821 130.216 C 234.109 121.992 229.1 121.695 224.424 117.019 L 223.225 117.019" style="fill: none;"/>
    <text style="fill: rgb(51, 51, 51); font-family: Arial, sans-serif; font-size: 28px; white-space: pre;">Enter your text </text>
    <path id="path-1" d="M 199.23 299.378 C 223.905 270.077 229.907 256.021 240.021 235.793 C 246.335 203.903 249.521 178.918 244.82 155.411 C 236.721 138.464 237.704 121.901 226.824 111.021 C 222.446 105.443 212.006 91.825 206.428 91.825 L 205.229 91.825" style="fill: none;"/>
    <path id="path-2" d="M 461.971 761.274 C 542.301 763.673 574.729 764.873 607.138 764.873 C 632.386 764.873 651.636 766.073 670.724 766.073 C 684.32 766.073 693.118 766.073 701.916 766.073 L 704.316 766.073 C 707.115 766.073 709.915 766.073 712.714 766.073" style="fill: none;"/>
    <path id="path-3" d="M 182.434 325.772 C 218.662 306.02 229.407 285.123 235.222 270.585 C 246.818 248.991 249.619 223.064 249.619 204.6 C 249.619 182.125 246.823 168.619 241.221 151.812 C 234.978 135.484 228.174 124.368 219.625 115.82 C 208.736 104.93 195.638 101.427 183.634 95.424 L 181.234 95.424 C 179.259 93.449 175.872 94.861 174.036 93.025" style="fill: none;"/>
  </defs>
  <style type="text/css">
	.st0{opacity:0;fill:#FFFFFF;}
	.st1{fill:#1D1F25;}
	.st2{fill:#E0ECDE;}
	.st3{fill:#DDCCBA;}
	.st4{fill:#9B1E3B;}
	.st5{fill:none;stroke:#231F20;stroke-width:3.0363;stroke-miterlimit:10;}
	.st6{fill:none;stroke:#231F20;stroke-width:3.0363;stroke-miterlimit:10;stroke-dasharray:17.8644,17.8644;}
	.st7{fill:none;stroke:#9B1E3B;stroke-width:1.5182;stroke-miterlimit:10;}
	.st8{fill:#575B5C;}
	.st9{fill:#FCFCFC;}
	.st10{fill:none;stroke:#231F20;stroke-width:3.0363;stroke-miterlimit:10;stroke-dasharray:18.366,18.366;}
</style>
  <g>
    <g transform="matrix(1, 0, 0, 1, 2.399473, -470.293826)">
      <path class="st3" d="M816.89,684.05L816.89,684.05c0-22.32,18.09-40.41,40.41-40.41h8.11v-2.39h-1.81 c-3.32,0-6.01-2.69-6.01-6.01c0-3.32,2.69-6.01,6.01-6.01h1.81v-6.98h-1.81c-3.32,0-6.01-2.69-6.01-6.01 c0-3.32,2.69-6.01,6.01-6.01h1.81v-6.98h-1.81c-3.32,0-6.01-2.69-6.01-6.01c0-3.32,2.69-6.01,6.01-6.01h1.81v-6.98h-1.81 c-3.32,0-6.01-2.69-6.01-6.01c0-3.32,2.69-6.01,6.01-6.01h1.81v-6.98h-1.81c-3.32,0-6.01-2.69-6.01-6.01s2.69-6.01,6.01-6.01 h1.81v-6.98h-1.81c-3.32,0-6.01-2.69-6.01-6.01c0-3.32,2.69-6.01,6.01-6.01h1.81v-11.18H158.59v11.18h1.81 c3.32,0,6.01,2.69,6.01,6.01c0,3.32-2.69,6.01-6.01,6.01h-1.81v6.98h1.81c3.32,0,6.01,2.69,6.01,6.01s-2.69,6.01-6.01,6.01h-1.81 v6.98h1.81c3.32,0,6.01,2.69,6.01,6.01c0,3.32-2.69,6.01-6.01,6.01h-1.81v6.98h1.81c3.32,0,6.01,2.69,6.01,6.01 c0,3.32-2.69,6.01-6.01,6.01h-1.81v6.98h1.81c3.32,0,6.01,2.69,6.01,6.01c0,3.32-2.69,6.01-6.01,6.01h-1.81v6.98h1.81 c3.32,0,6.01,2.69,6.01,6.01c0,3.32-2.69,6.01-6.01,6.01h-1.81v2.39h8.11c22.32,0,40.41,18.09,40.41,40.41v0 c0,22.32-18.09,40.41-40.41,40.41h-8.11v2.39h1.81c3.32,0,6.01,2.69,6.01,6.01v0c0,3.32-2.69,6.01-6.01,6.01h-1.81v6.98h1.81 c3.32,0,6.01,2.69,6.01,6.01c0,3.32-2.69,6.01-6.01,6.01h-1.81v6.98h1.81c3.32,0,6.01,2.69,6.01,6.01c0,3.32-2.69,6.01-6.01,6.01 h-1.81v6.98h1.81c3.32,0,6.01,2.69,6.01,6.01c0,3.32-2.69,6.01-6.01,6.01h-1.81v6.98h1.81c3.32,0,6.01,2.69,6.01,6.01 c0,3.32-2.69,6.01-6.01,6.01h-1.81v6.98h1.81c3.32,0,6.01,2.69,6.01,6.01c0,3.32-2.69,6.01-6.01,6.01h-1.81V845h706.81v-11.18 h-1.81c-3.32,0-6.01-2.69-6.01-6.01c0-3.32,2.69-6.01,6.01-6.01h1.81v-6.98h-1.81c-3.32,0-6.01-2.69-6.01-6.01 c0-3.32,2.69-6.01,6.01-6.01h1.81v-6.98h-1.81c-3.32,0-6.01-2.69-6.01-6.01c0-3.32,2.69-6.01,6.01-6.01h1.81v-6.98h-1.81 c-3.32,0-6.01-2.69-6.01-6.01c0-3.32,2.69-6.01,6.01-6.01h1.81v-6.98h-1.81c-3.32,0-6.01-2.69-6.01-6.01 c0-3.32,2.69-6.01,6.01-6.01h1.81v-6.98h-1.81c-3.32,0-6.01-2.69-6.01-6.01v0c0-3.32,2.69-6.01,6.01-6.01h1.81v-2.39h-8.11 C834.98,724.46,816.89,706.36,816.89,684.05z"/>
      <g>
        <polygon class="st4" points="408.16,736.13 397.63,736.13 395.94,736.13 393.18,736.13 391.49,736.13 380.96,736.13&#10;&#9;&#9;&#9;&#9;&#9;362.38,833.37 365.82,833.37 383.7,739.81 391.49,739.81 391.49,833.37 397.63,833.37 397.63,739.81 405.42,739.81&#10;&#9;&#9;&#9;&#9;&#9;423.3,833.37 426.74,833.37 &#9;&#9;&#9;&#9;"/>
        <rect x="389.36" y="734.66" class="st4" width="10.4" height="1.47"/>
        <rect x="391.61" y="733.16" class="st4" width="5.9" height="1.5"/>
        <rect x="392.48" y="725.6" class="st4" width="4.16" height="7.57"/>
        <rect x="388.47" y="718.34" class="st4" width="12.17" height="0.61"/>
        <polygon class="st4" points="400.64,718.95 388.47,718.95 392.48,725.6 396.64,725.6 &#9;&#9;&#9;&#9;"/>
        <rect x="344.38" y="687.53" class="st4" width="2.68" height="5.78"/>
        <rect x="347.06" y="688.76" transform="matrix(-1 -1.342604e-12 1.342604e-12 -1 698.1893 1380.8409)" class="st4" width="4.06" height="3.32"/>
        <rect x="351.13" y="689.71" class="st4" width="1.15" height="1.41"/>
        <path class="st4" d="M352.28,688.76v3.32h4.6c2.79,0,5.39,1.11,7.31,2.97v-6.29H352.28z"/>
        <rect x="424.93" y="686.74" class="st4" width="2.05" height="26.18"/>
        <rect x="426.97" y="700.77" class="st4" width="1.2" height="7.21"/>
        <rect x="426.97" y="692.26" class="st4" width="14.19" height="4.17"/>
        <path class="st4" d="M441.16,696.43l21.62,12.62c0.15,0.09,0.34-0.02,0.34-0.19v-29.01c0-0.17-0.19-0.28-0.34-0.19l-21.62,12.62 V696.43z"/>
        <rect x="428.92" y="690.7" class="st4" width="3.07" height="7.29"/>
        <rect x="434.72" y="690.22" class="st4" width="3.73" height="8.26"/>
        <path class="st4" d="M400.47,677.98c-2.23-2.21-3.94-4.95-4.94-8.01h-1.96c-0.99,3.06-2.7,5.8-4.94,8.01h-6.94v8.04h25.7v-8.04 H400.47z"/>
        <path class="st4" d="M374.61,643.87c-11.01,0-19.94,8.93-19.94,19.94c0,11.01,8.93,19.94,19.94,19.94 c11.01,0,19.94-8.93,19.94-19.94C394.55,652.8,385.62,643.87,374.61,643.87z M383.58,652.76c2.43-1.4,5.54-0.57,6.95,1.86 c1.4,2.43,0.57,5.54-1.86,6.95c-2.43,1.4-5.54,0.57-6.95-1.86C380.32,657.28,381.15,654.16,383.58,652.76z M365.64,674.87 c-2.43,1.4-5.54,0.57-6.95-1.86c-1.4-2.43-0.57-5.54,1.86-6.95c2.43-1.4,5.54-0.57,6.95,1.86 C368.91,670.35,368.07,673.46,365.64,674.87z M367.5,659.71c-1.4,2.43-4.52,3.27-6.95,1.86c-2.43-1.4-3.27-4.52-1.86-6.95 c1.4-2.43,4.52-3.27,6.95-1.86C368.07,654.16,368.91,657.28,367.5,659.71z M374.61,682.2c-2.81,0-5.09-2.28-5.09-5.09 c0-2.81,2.28-5.09,5.09-5.09c2.81,0,5.09,2.28,5.09,5.09C379.7,679.92,377.42,682.2,374.61,682.2z M376.01,664.27 c-0.17-0.29-0.07-0.67,0.23-0.84c0.29-0.17,0.67-0.07,0.84,0.23c0.17,0.29,0.07,0.67-0.23,0.84 C376.56,664.67,376.18,664.56,376.01,664.27z M375.98,665.87c-0.17,0.29-0.55,0.4-0.84,0.23c-0.29-0.17-0.4-0.55-0.23-0.84 c0.17-0.29,0.55-0.4,0.84-0.23C376.05,665.2,376.15,665.58,375.98,665.87z M375.71,662.83c-0.34,0-0.62-0.28-0.62-0.62 c0-0.34,0.28-0.62,0.62-0.62c0.34,0,0.62,0.28,0.62,0.62C376.32,662.55,376.05,662.83,375.71,662.83z M375.65,663.81 c0,0.57-0.47,1.04-1.04,1.04c-0.57,0-1.04-0.47-1.04-1.04c0-0.57,0.47-1.04,1.04-1.04 C375.19,662.77,375.65,663.24,375.65,663.81z M374.13,665.41c0,0.34-0.28,0.62-0.62,0.62c-0.34,0-0.62-0.28-0.62-0.62 c0-0.34,0.28-0.62,0.62-0.62C373.86,664.8,374.13,665.07,374.13,665.41z M374.31,662.37c-0.17,0.29-0.55,0.4-0.84,0.23 c-0.29-0.17-0.4-0.55-0.23-0.84c0.17-0.29,0.55-0.4,0.84-0.23C374.38,661.7,374.48,662.08,374.31,662.37z M373.21,663.36 c0.17,0.29,0.07,0.67-0.23,0.84s-0.67,0.07-0.84-0.23c-0.17-0.29-0.07-0.67,0.23-0.84 C372.66,662.96,373.04,663.06,373.21,663.36z M374.61,655.6c-2.81,0-5.09-2.28-5.09-5.09c0-2.81,2.28-5.09,5.09-5.09 c2.81,0,5.09,2.28,5.09,5.09C379.7,653.33,377.42,655.6,374.61,655.6z M390.53,673.01c-1.4,2.43-4.52,3.27-6.95,1.86 c-2.43-1.4-3.27-4.52-1.86-6.95c1.4-2.43,4.52-3.27,6.95-1.86S391.94,670.57,390.53,673.01z"/>
        <path class="st4" d="M394.56,663.81c0,11.01,8.93,19.94,19.94,19.94c11.01,0,19.94-8.93,19.94-19.94 c0-11.01-8.93-19.94-19.94-19.94C403.49,643.87,394.56,652.8,394.56,663.81z M407.4,659.71c-1.4,2.43-4.52,3.27-6.95,1.86 c-2.43-1.4-3.27-4.52-1.86-6.95c1.4-2.43,4.52-3.27,6.95-1.86C407.97,654.16,408.8,657.28,407.4,659.71z M421.62,667.92 c1.4-2.43,4.52-3.27,6.95-1.86c2.43,1.4,3.27,4.52,1.86,6.95c-1.4,2.43-4.52,3.27-6.95,1.86 C421.05,673.46,420.21,670.35,421.62,667.92z M423.48,652.76c2.43-1.4,5.54-0.57,6.95,1.86c1.4,2.43,0.57,5.54-1.86,6.95 c-2.43,1.4-5.54,0.57-6.95-1.86C420.21,657.28,421.05,654.16,423.48,652.76z M409.42,677.11c0-2.81,2.28-5.09,5.09-5.09 c2.81,0,5.09,2.28,5.09,5.09c0,2.81-2.28,5.09-5.09,5.09C411.7,682.2,409.42,679.92,409.42,677.11z M412.27,664.5 c-0.29-0.17-0.4-0.55-0.23-0.84c0.17-0.29,0.55-0.4,0.84-0.23c0.29,0.17,0.4,0.55,0.23,0.84S412.56,664.67,412.27,664.5z M413.36,665.03c0.29-0.17,0.67-0.07,0.84,0.23c0.17,0.29,0.07,0.67-0.23,0.84c-0.29,0.17-0.67,0.07-0.84-0.23 C412.97,665.58,413.07,665.2,413.36,665.03z M412.8,662.21c0-0.34,0.28-0.62,0.62-0.62c0.34,0,0.62,0.28,0.62,0.62 c0,0.34-0.28,0.62-0.62,0.62C413.07,662.83,412.8,662.55,412.8,662.21z M414.51,662.77c0.57,0,1.04,0.47,1.04,1.04 c0,0.57-0.47,1.04-1.04,1.04c-0.57,0-1.04-0.47-1.04-1.04C413.47,663.24,413.93,662.77,414.51,662.77z M415.6,664.8 c0.34,0,0.62,0.28,0.62,0.62c0,0.34-0.28,0.62-0.62,0.62c-0.34,0-0.62-0.28-0.62-0.62C414.99,665.07,415.26,664.8,415.6,664.8z M415.04,661.53c0.29-0.17,0.67-0.07,0.84,0.23c0.17,0.29,0.07,0.67-0.23,0.84c-0.29,0.17-0.67,0.07-0.84-0.23 C414.64,662.08,414.74,661.7,415.04,661.53z M416.75,663.13c0.29,0.17,0.4,0.55,0.23,0.84c-0.17,0.29-0.55,0.4-0.84,0.23 s-0.4-0.55-0.23-0.84C416.08,663.06,416.45,662.96,416.75,663.13z M409.42,650.52c0-2.81,2.28-5.09,5.09-5.09 c2.81,0,5.09,2.28,5.09,5.09c0,2.81-2.28,5.09-5.09,5.09C411.7,655.6,409.42,653.33,409.42,650.52z M400.45,666.06 c2.43-1.4,5.54-0.57,6.95,1.86c1.4,2.43,0.57,5.54-1.86,6.95c-2.43,1.4-5.54,0.57-6.95-1.86S398.01,667.46,400.45,666.06z"/>
        <rect x="360.02" y="727.51" transform="matrix(0.8796 -0.4757 0.4757 0.8796 -301.6492 267.2232)" class="st4" width="34.11" height="4.01"/>
        <rect x="341.46" y="740.04" transform="matrix(0.8796 -0.4757 0.4757 0.8796 -310.9519 257.0984)" class="st4" width="21.93" height="5.61"/>
        <path class="st4" d="M423.48,686.02h-57.85c-0.8,0-1.44,0.65-1.44,1.44v29.32c0,0.8,0.65,1.44,1.44,1.44h57.85 c0.8,0,1.44-0.65,1.44-1.44v-29.32C424.93,686.67,424.28,686.02,423.48,686.02z M416.9,717.48c-0.87,0-1.57-0.7-1.57-1.57 s0.7-1.57,1.57-1.57s1.57,0.7,1.57,1.57S417.76,717.48,416.9,717.48z M421.52,717.48c-0.87,0-1.57-0.7-1.57-1.57 s0.7-1.57,1.57-1.57c0.87,0,1.57,0.7,1.57,1.57S422.39,717.48,421.52,717.48z"/>
        <g>
          <path class="st4" d="M324.52,615.06c6.64,35.95,26.53,53.97,32.98,58.99c-0.09-0.16-0.18-0.32-0.28-0.48l-0.01,0 c0,0-1.39-1.3-3.55-3.67c-24.52-24.67-30.64-59.17-22.26-85.37c9.79-30.64,35.11-50.38,35.11-50.38h-10.1 C356.41,534.14,316.54,571.91,324.52,615.06z"/>
          <path class="st4" d="M331.4,584.52c-8.37,26.2-2.26,60.7,22.26,85.37c-7.55-8.28-24.54-29.67-24.85-54.63 c-0.41-32.11,15.34-60.62,41.72-81.13h-4.02C366.51,534.14,341.19,553.88,331.4,584.52z"/>
          <g>
            <path class="st3" d="M525.54,534.14h-22.42c7.75,1.16,15.28,2.96,22.42,5.46V534.14z"/>
            <path class="st3" d="M328.81,615.26c0.32,24.96,17.31,46.35,24.85,54.63c1.05,1.06,2.13,2.09,3.25,3.11 c-0.72-1.38-1.28-2.85-1.66-4.39l0,0c0,0-26.58-37.02,4.1-81.4c19.4-28.07,58.34-47.53,98.51-53.08h-87.33 C344.15,554.65,328.4,583.16,328.81,615.26z"/>
          </g>
          <path class="st4" d="M324.52,615.06c-7.98-43.15,31.89-80.92,31.89-80.92h-7.61c-16.75,18.28-31.4,46.48-28.37,73.36 c4.91,43.56,38.06,68.06,38.06,68.06l0.01,0c-0.35-0.49-0.69-0.99-1-1.5C351.04,669.03,331.16,651.01,324.52,615.06z"/>
          <path class="st4" d="M522.76,556.79c-0.43-0.18-0.91-0.37-1.44-0.58c0.44,0.2,0.9,0.42,1.36,0.67L522.76,556.79z"/>
          <path class="st4" d="M516.91,554.61c1.71,0.58,3.18,1.13,4.41,1.61C519.3,555.29,517.59,554.79,516.91,554.61z"/>
          <path class="st4" d="M516.91,554.61c-0.1-0.03-0.2-0.07-0.3-0.1l-0.02,0.02C516.6,554.53,516.71,554.55,516.91,554.61z"/>
          <path class="st4" d="M522.68,556.88c-0.46-0.24-0.92-0.46-1.36-0.67c-1.22-0.48-2.7-1.02-4.41-1.61 c-0.2-0.05-0.32-0.08-0.32-0.08l0.02-0.02c-18.85-6.39-65.18-16.99-115.97,9.57c-59.55,31.13-55.39,77.32-45.94,100.91 c-0.02-0.39-0.04-0.77-0.04-1.17c0-0.41,0.02-0.81,0.04-1.22c-9.95-25.15-2.76-68.35,48.28-93.62c70.5-34.9,122.55,0,122.55,0 V558c0,0-0.97-0.47-2.78-1.21L522.68,556.88z"/>
          <path class="st4" d="M354.17,598.43c-19.39,36,0.83,69.29,0.9,69.41c-0.19-0.93-0.31-1.88-0.37-2.85 c-9.46-23.59-13.62-69.78,45.94-100.91c50.79-26.55,97.12-15.95,115.97-9.57c0.1,0.03,0.2,0.07,0.3,0.1 c0.68,0.18,2.38,0.68,4.41,1.61c0.53,0.21,1.01,0.4,1.44,0.58c1.82,0.74,2.78,1.21,2.78,1.21v-4.35v-9.78v-0.8 C434.09,519.36,371.96,565.4,354.17,598.43z"/>
          <g>
            <path class="st3" d="M354.17,598.43c-0.43,0.8-0.83,1.59-1.22,2.38l4.07,3.48c0.88-1.69,1.85-3.38,2.9-5.06l-4.11-3.66 C355.23,596.53,354.68,597.48,354.17,598.43z"/>
            <path class="st3" d="M357.87,592.33l4.16,3.71c1.07-1.52,2.21-3.04,3.43-4.54l-4.01-4.1 C360.16,589.05,358.97,590.7,357.87,592.33z"/>
            <path class="st3" d="M349.14,610.12l4.11,2.73c0.61-1.68,1.29-3.36,2.05-5.05l-4.15-3.06 C350.39,606.55,349.72,608.35,349.14,610.12z"/>
            <path class="st3" d="M379.02,569.6l3.72,5.6c1.64-1.22,3.34-2.42,5.13-3.61l-3.6-6.07 C382.45,566.87,380.7,568.23,379.02,569.6z"/>
            <path class="st3" d="M371.2,576.58l3.78,4.97c1.45-1.31,2.97-2.6,4.57-3.88l-3.71-5.37 C374.23,573.71,372.68,575.14,371.2,576.58z"/>
            <path class="st3" d="M363.98,584.29l4.07,4.19c1.26-1.41,2.6-2.81,4.02-4.2l-3.94-4.6 C366.67,581.22,365.28,582.76,363.98,584.29z"/>
            <path class="st3" d="M351.99,661.56l1.56,0.34c-0.7-1.99-1.34-4.1-1.92-6.33l-2.12-0.68 C350.33,657.46,351.19,659.7,351.99,661.56z"/>
            <path class="st3" d="M348.24,650.53l2.43,0.83c-0.39-1.95-0.72-3.96-0.97-6.04l-2.79-0.91 C347.29,646.57,347.74,648.61,348.24,650.53z"/>
            <path class="st3" d="M345.79,629.64l3.55,1.8c0.13-1.83,0.32-3.69,0.61-5.56l-3.75-2.2 C345.98,625.7,345.84,627.69,345.79,629.64z"/>
            <path class="st3" d="M346.75,619.82l3.91,2.17c0.37-1.77,0.82-3.56,1.35-5.36l-4-2.65 C347.5,615.95,347.07,617.9,346.75,619.82z"/>
            <path class="st3" d="M346.26,639.96l3.07,1.35c-0.13-1.96-0.18-3.97-0.15-6.01l-3.38-1.55 C345.87,635.89,346.03,637.96,346.26,639.96z"/>
            <path class="st3" d="M453.36,538.09l-1.27,9.9c2.24-0.27,4.44-0.48,6.61-0.64l1.97-10.08 C458.2,537.48,455.76,537.76,453.36,538.09z"/>
            <path class="st3" d="M489.88,537.07l-4.95,10.64c2.16,0.22,4.25,0.48,6.27,0.78l5.85-10.74 C494.63,537.47,492.25,537.25,489.88,537.07z"/>
            <path class="st3" d="M387.92,562.92l3.47,6.43c1.72-1.07,3.51-2.12,5.37-3.16l-3.28-6.89 C391.57,560.47,389.72,561.68,387.92,562.92z"/>
            <path class="st3" d="M465.51,536.88l-2.41,10.19c2.26-0.1,4.48-0.14,6.65-0.14c0.79-2.78,2.29-8.05,2.98-10.35 C470.29,536.64,467.88,536.74,465.51,536.88z"/>
            <path class="st3" d="M477.73,536.56L474.08,547c2.19,0.07,4.34,0.18,6.43,0.33l4.53-10.57 C482.57,536.64,480.13,536.58,477.73,536.56z"/>
            <path class="st3" d="M514.2,540.47l-7.91,11c2.26,0.57,4.34,1.15,6.24,1.73l8.72-11.19 C518.88,541.45,516.53,540.94,514.2,540.47z"/>
            <path class="st3" d="M501.86,538.36l-6.24,10.84c2.25,0.39,4.39,0.82,6.42,1.27l7.09-10.97 C506.68,539.07,504.26,538.69,501.86,538.36z"/>
            <path class="st3" d="M407.72,551.53l2.36,8c1.95-0.86,3.89-1.66,5.82-2.41l-1.74-8.45 C411.96,549.58,409.81,550.54,407.72,551.53z"/>
            <path class="st3" d="M397.46,556.9l2.93,7.3c0.08-0.04,0.16-0.09,0.25-0.13c1.82-0.95,3.63-1.85,5.44-2.71l-2.66-7.71 C401.38,554.71,399.39,555.79,397.46,556.9z"/>
            <path class="st3" d="M418.5,546.92l1.52,8.64c2.14-0.77,4.27-1.48,6.38-2.13l-1.15-8.91 C422.96,545.29,420.71,546.08,418.5,546.92z"/>
            <path class="st3" d="M441.53,540.14l-0.32,9.57c2.17-0.43,4.31-0.8,6.42-1.12l1.05-9.8 C446.26,539.19,443.87,539.64,441.53,540.14z"/>
            <path class="st3" d="M429.78,543.11l0.73,9.12c2.14-0.59,4.26-1.13,6.36-1.61l-0.14-9.39 C434.38,541.82,432.05,542.44,429.78,543.11z"/>
            <path class="st3" d="M516.91,554.61c0.68,0.18,2.38,0.68,4.41,1.61c0.53,0.21,1.01,0.4,1.44,0.58l2.78-3.13v-9.78l-8.93,10.62 C516.72,554.54,516.81,554.57,516.91,554.61z"/>
          </g>
          <path class="st4" d="M457.86,534.14c-40.17,5.55-79.11,25.01-98.51,53.08c-30.68,44.38-4.1,81.4-4.1,81.4l0,0 c-0.06-0.26-0.13-0.52-0.18-0.78c-0.07-0.12-20.3-33.41-0.9-69.41c17.79-33.03,79.92-79.06,171.38-55.35v-3.48 c-7.14-2.5-14.67-4.3-22.42-5.46H457.86z"/>
          <g>
            <path class="st4" d="M515.97,534.14l-1.38,2.24c1.83,0.44,3.63,0.93,5.42,1.45l2.72-3.69H515.97z"/>
            <path class="st4" d="M329.48,602.81l17.45,10.71c0.65-2.46,1.45-4.97,2.42-7.52l-18.18-12.9 C330.45,596.28,329.88,599.52,329.48,602.81z"/>
            <path class="st4" d="M338.67,649.09l8.95,2.86c-0.65-2.14-1.24-4.45-1.72-6.92l-11.22-4.06 C335.9,643.82,337.25,646.53,338.67,649.09z"/>
            <path class="st4" d="M406.82,534.14l3.56,13.46c1.97-0.87,3.96-1.71,5.97-2.51l-1.97-10.94H406.82z"/>
            <path class="st4" d="M352.64,551.17l17.58,23.13c1.32-1.31,2.68-2.6,4.09-3.87l-16.73-24.69 C355.87,547.51,354.21,549.32,352.64,551.17z"/>
          </g>
          <g>
            <path class="st3" d="M329.6,633.77l2.51,0.82c-0.83-2.55-1.53-5.12-2.11-7.7l-2.94-0.97 C327.84,628.66,328.69,631.28,329.6,633.77z"/>
            <path class="st3" d="M324.52,615.06c0.33,1.8,0.71,3.55,1.1,5.26l3.43,1.8c-0.43-2.53-0.73-5.06-0.92-7.58l-4.03-2.05 C324.22,613.35,324.36,614.2,324.52,615.06z"/>
            <path class="st3" d="M323.57,607.24l4.31,2.35c-0.05-2.63,0.02-5.23,0.21-7.8l-4.5-2.61 C323.43,601.83,323.42,604.52,323.57,607.24z"/>
            <path class="st3" d="M357.5,674.05c-0.09-0.16-0.18-0.32-0.28-0.48l-0.01,0c0,0-1.39-1.3-3.55-3.67 c-1.66-1.67-3.23-3.39-4.72-5.15l-0.84,0.39C352.02,669.53,355.44,672.45,357.5,674.05z"/>
            <path class="st3" d="M343.8,659.92l1.16-0.2c-1.79-2.43-3.43-4.93-4.93-7.47l-1.58-0.12 C340.23,655.01,342.04,657.6,343.8,659.92z"/>
            <path class="st3" d="M335.51,646.97l1.82,0.32c-1.29-2.56-2.44-5.15-3.47-7.77l-2.27-0.72 C332.83,641.72,334.15,644.43,335.51,646.97z"/>
            <path class="st3" d="M346.37,545.53l3.99,5.03c1.89-2.33,3.74-4.43,5.48-6.3l-3.82-5.49 C350.41,540.56,348.47,542.84,346.37,545.53z"/>
            <path class="st3" d="M356.41,534.14c0,0-0.12,0.11-0.33,0.32l3.65,5.79c4.03-3.96,6.78-6.12,6.78-6.12H356.41z"/>
            <path class="st3" d="M338.27,557.12l4.11,4.43c1.52-2.38,3.09-4.62,4.66-6.73l-4.08-4.72 C341.41,552.26,339.83,554.61,338.27,557.12z"/>
            <path class="st3" d="M324.09,594.23l4.49,2.88c0.34-2.5,0.79-4.96,1.37-7.37l-4.39-3.29 C324.95,589,324.45,591.59,324.09,594.23z"/>
            <path class="st3" d="M327.05,581.09l4.33,3.49c0.01-0.02,0.01-0.04,0.02-0.06c0.75-2.34,1.6-4.61,2.51-6.82l-4.27-3.79 C328.69,576.24,327.82,578.63,327.05,581.09z"/>
            <path class="st3" d="M331.82,568.94l4.21,3.99c1.13-2.37,2.34-4.66,3.6-6.85l-4.07-4.37 C334.26,564.02,333,566.43,331.82,568.94z"/>
          </g>
        </g>
      </g>
      <path class="st4" d="M158.59,523.09v11.18h1.81c3.32,0,6.01,2.69,6.01,6.01c0,3.32-2.69,6.01-6.01,6.01h-1.81v6.98h1.81 c3.32,0,6.01,2.69,6.01,6.01s-2.69,6.01-6.01,6.01h-1.81v6.98h1.81c3.32,0,6.01,2.69,6.01,6.01c0,3.32-2.69,6.01-6.01,6.01h-1.81 v6.98h1.81c3.32,0,6.01,2.69,6.01,6.01c0,3.32-2.69,6.01-6.01,6.01h-1.81v6.98h1.81c3.32,0,6.01,2.69,6.01,6.01 c0,3.32-2.69,6.01-6.01,6.01h-1.81v6.98h1.81c3.32,0,6.01,2.69,6.01,6.01c0,3.32-2.69,6.01-6.01,6.01h-1.81v2.39h8.11 c22.32,0,40.41,18.09,40.41,40.41v0c0,22.32-18.09,40.41-40.41,40.41h-8.11v2.39h1.81c3.32,0,6.01,2.69,6.01,6.01v0 c0,3.32-2.69,6.01-6.01,6.01h-1.81v6.98h1.81c3.32,0,6.01,2.69,6.01,6.01c0,3.32-2.69,6.01-6.01,6.01h-1.81v6.98h1.81 c3.32,0,6.01,2.69,6.01,6.01c0,3.32-2.69,6.01-6.01,6.01h-1.81v6.98h1.81c3.32,0,6.01,2.69,6.01,6.01c0,3.32-2.69,6.01-6.01,6.01 h-1.81v6.98h1.81c3.32,0,6.01,2.69,6.01,6.01c0,3.32-2.69,6.01-6.01,6.01h-1.81v6.98h1.81c3.32,0,6.01,2.69,6.01,6.01 c0,3.32-2.69,6.01-6.01,6.01h-1.81V845h132.37V523.09H158.59z"/>
      <g>
        <g>
          <line class="st5" x1="739.43" y1="523.09" x2="739.43" y2="532.2"/>
          <line class="st6" x1="739.43" y1="550.06" x2="739.43" y2="826.96"/>
          <line class="st5" x1="739.43" y1="835.89" x2="739.43" y2="845"/>
        </g>
      </g>
      <rect x="301.04" y="534.14" class="st7" width="427.92" height="299.24"/>
      <g transform="matrix(1, 0, 0, 1, -35.543061, -15.615294)">
        <text style="fill: rgb(15, 189, 61); font-family: Arial, sans-serif; font-size: 36.7px; font-weight: 700; white-space: pre;" x="562.748" y="582.148">MARCO CASTRO</text>
      </g>
      <g>
        <g/>
      </g>
      <rect x="492.86" y="798.01" class="st9" width="32.37" height="16.15"/>
      <rect x="586.93" y="798.01" class="st9" width="32.37" height="16.15"/>
      <rect x="457.86" y="780.56" class="st4" width="254.31" height="4.19"/>
      <g>
        <rect x="752.5" y="553.26" class="st9" width="53.99" height="265.74"/>
        <g>
          <path d="M778.89,780.08c1.52,0,3.03,0,4.55,0c6.4,0,12.81-0.02,19.21,0.01v-10.97c-15.43,0.04-30.87,0.03-46.3,0.03v10.94 C763.86,780.06,771.37,780.08,778.89,780.08z"/>
          <path d="M783.35,632.19c6.43,0,12.86-0.03,19.3,0.01v-9.78c-7.87,0-15.74,0-23.61,0c-2.04,0-4.07,0-6.11,0 c-5.53,0-11.05,0.03-16.58,0v9.77C765.34,632.19,774.35,632.19,783.35,632.19z"/>
          <path d="M779.05,716.05c7.86,0,15.73-0.02,23.59,0.01v-9.09c-15.43,0.04-30.87,0.04-46.3,0.03v9.05 C763.91,716.03,771.48,716.05,779.05,716.05z"/>
          <path d="M802.64,575.85v-9.09c-7.87,0.03-15.75,0.01-23.62,0.01c-1.89,0-3.79,0-5.68,0c-5.67,0-11.33,0-17-0.01v9.08 C771.78,575.83,787.21,575.83,802.64,575.85z"/>
          <path d="M779,697.14c7.88,0,15.76,0,23.64,0v-8.05c-15.43,0.05-30.87,0.04-46.3,0.04v8.03 C763.89,697.12,771.45,697.14,779,697.14z"/>
          <path d="M779.04,656.67c7.87,0,15.73,0,23.6,0v-6.53c-15.43,0.04-30.87,0.03-46.3,0.03v6.51 C763.91,656.65,771.48,656.67,779.04,656.67z"/>
          <path d="M769.37,687.96c11.09,0,22.18-0.01,33.27,0.02v-6.05c-7.84,0.04-15.69,0.02-23.53,0.02c-7.59,0-15.18,0-22.76,0v6.01 C760.69,687.94,765.03,687.96,769.37,687.96z"/>
          <path d="M802.64,599.99v-5.83c-7.87,0.03-15.75,0.01-23.62,0.01c-7.56,0-15.12,0-22.68,0.01v5.8 C771.78,599.99,787.21,599.99,802.64,599.99z"/>
          <path d="M802.64,740.14v-5.75c-7.82,0.04-15.63,0.02-23.45,0.02c-7.62,0-15.23,0-22.85,0.01v5.71 C771.78,740.14,787.21,740.14,802.64,740.14z"/>
          <path d="M802.64,748.14v-5.07c-7.87,0.05-15.74,0.02-23.61,0.02c-7.56,0-15.12,0.04-22.69-0.01v5.05 C771.78,748.08,787.21,748.08,802.64,748.14z"/>
          <path d="M779.02,607.87c7.88,0,15.75,0,23.63-0.01v-4.96c-15.43-0.01-30.87,0-46.3-0.06v5.04 C763.9,607.85,771.46,607.87,779.02,607.87z"/>
          <path d="M779.04,806.21c7.87,0,15.74-0.03,23.61,0.02v-4.99c-15.43,0.05-30.87,0.05-46.3,0v4.98 C763.91,806.19,771.47,806.21,779.04,806.21z"/>
          <path d="M779.01,645.74c5.2,0,10.41,0,15.61,0c2.67,0,5.35,0,8.02,0v-4.7c-15.43-0.01-30.87-0.01-46.3-0.01v4.7 C763.9,645.74,771.45,645.74,779.01,645.74z"/>
          <path d="M779.04,758.72c7.87,0,15.73,0,23.6,0.01v-3.45c-15.43-0.01-30.87-0.01-46.3-0.01v3.46 C763.91,758.71,771.47,758.72,779.04,758.72z"/>
          <path d="M779.05,789.79c7.86,0,15.73-0.02,23.59,0.01v-3.42c-15.43-0.02-30.87-0.02-46.3-0.01v3.43 C763.91,789.77,771.48,789.79,779.05,789.79z"/>
          <path d="M802.64,665.4v-3.42c-7.87,0.01-15.74,0.01-23.61,0.01c-7.56,0-15.13,0-22.69,0v3.41 C771.78,665.38,787.21,665.38,802.64,665.4z"/>
          <path d="M779.07,671.08c7.86,0,15.72-0.02,23.58,0.02v-3.41c-15.43-0.02-30.87-0.02-46.3-0.03v3.42 C763.92,671.07,771.49,671.08,779.07,671.08z"/>
          <path d="M802.64,613.21v-3.45c-7.87,0.03-15.74,0.01-23.61,0.01c-7.56,0-15.12,0.02-22.69-0.01v3.42 C771.78,613.21,787.21,613.21,802.64,613.21z"/>
          <path d="M779.04,722.32c7.87,0,15.73-0.01,23.6,0.01v-3.16c-15.43-0.02-30.87-0.03-46.3-0.02v3.19 C763.91,722.32,771.48,722.32,779.04,722.32z"/>
          <path d="M802.64,702.14v-3.16c-7.82,0-15.64,0-23.46,0c-7.61,0-15.23,0-22.84-0.01v3.17 C771.78,702.15,787.21,702.15,802.64,702.14z"/>
          <path d="M778.89,582.08c7.92,0,15.83-0.02,23.75,0.01v-3.12c-15.43-0.02-30.87-0.02-46.3-0.02v3.14 C763.86,582.08,771.38,582.08,778.89,582.08z"/>
          <path d="M802.64,813.45v-2.94c-7.85,0-15.69,0-23.54,0c-7.59,0-15.18,0.02-22.76-0.01v2.92 C771.78,813.45,787.21,813.45,802.64,813.45z"/>
          <path d="M756.34,558.8v3.14c2.84,0,5.68,0,8.52,0c12.59,0,25.19,0,37.78,0.02v-3.13c-7.86-0.01-15.73-0.01-23.59-0.01 C771.48,558.81,763.91,558.81,756.34,558.8z"/>
          <path d="M802.64,732.3v-1.61c-7.87,0-15.75,0-23.62,0c-7.56,0-15.12,0-22.68,0v1.61C771.78,732.3,787.21,732.3,802.64,732.3z"/>
          <path d="M779.18,592.06c7.82,0,15.64,0,23.46-0.01v-1.58c-15.43,0-30.87,0-46.3,0v1.6 C763.96,592.06,771.57,592.06,779.18,592.06z"/>
          <path d="M778.89,799.43c7.92,0,15.84,0,23.75-0.02V798c-15.43-0.02-30.87-0.02-46.3-0.03v1.46 C763.86,799.43,771.37,799.43,778.89,799.43z"/>
          <path d="M802.64,763.58v-1.12c-7.87,0-15.74,0-23.61,0c-7.56,0-15.13,0-22.69,0.01v1.11 C771.78,763.59,787.21,763.59,802.64,763.58z"/>
          <path d="M779.03,636.63c7.87,0,15.74,0,23.61,0v-1.28c-15.43,0-30.87,0-46.3,0.02v1.27 C763.91,636.63,771.47,636.63,779.03,636.63z"/>
          <path d="M779.04,794.49c7.87,0,15.74,0,23.6-0.02v-1.07c-15.43-0.02-30.87-0.02-46.3-0.02v1.1 C763.91,794.49,771.47,794.49,779.04,794.49z"/>
          <path d="M779.03,648.07c7.87,0,15.74,0,23.61-0.01v-1.08c-15.43,0-30.87,0-46.3,0v1.1 C763.91,648.07,771.47,648.07,779.03,648.07z"/>
          <path d="M779.03,676.11c7.87,0,15.74,0,23.62-0.02v-1.05c-15.43-0.02-30.87-0.02-46.3-0.02v1.1 C763.9,676.11,771.47,676.11,779.03,676.11z"/>
          <path d="M802.64,727.17v-1.06c-15.43,0-30.87,0-46.3,0.01v1.04C771.78,727.17,787.21,727.17,802.64,727.17z"/>
          <path d="M802.64,618.11v-0.5c-15.43,0-30.87,0-46.3,0v0.5C771.78,618.11,787.21,618.11,802.64,618.11z"/>
          <path d="M802.64,586.74v-0.49c-15.43,0-30.87,0-46.3,0v0.49C771.78,586.74,787.21,586.74,802.64,586.74z"/>
        </g>
      </g>
      <g>
        <polygon class="st3" points="255.55,742.35 261.13,739.59 262.03,733.43 266.38,737.89 272.52,736.84 269.62,742.35&#10;&#9;&#9;&#9;&#9;&#9;272.52,747.87 266.38,746.81 262.03,751.28 261.13,745.11 &#9;&#9;&#9;&#9;"/>
        <polygon class="st3" points="255.55,714.19 261.13,711.43 262.03,705.26 266.38,709.73 272.52,708.67 269.62,714.19&#10;&#9;&#9;&#9;&#9;&#9;272.52,719.7 266.38,718.65 262.03,723.11 261.13,716.95 &#9;&#9;&#9;&#9;"/>
        <polygon class="st3" points="255.55,686.02 261.13,683.27 262.03,677.1 266.38,681.56 272.52,680.51 269.62,686.02&#10;&#9;&#9;&#9;&#9;&#9;272.52,691.54 266.38,690.49 262.03,694.95 261.13,688.78 &#9;&#9;&#9;&#9;"/>
        <polygon class="st3" points="255.55,657.86 261.13,655.1 262.03,648.94 266.38,653.4 272.52,652.34 269.62,657.86&#10;&#9;&#9;&#9;&#9;&#9;272.52,663.38 266.38,662.32 262.03,666.78 261.13,660.62 &#9;&#9;&#9;&#9;"/>
        <polygon class="st3" points="255.55,629.7 261.13,626.94 262.03,620.77 266.38,625.23 272.52,624.18 269.62,629.7&#10;&#9;&#9;&#9;&#9;&#9;272.52,635.21 266.38,634.16 262.03,638.62 261.13,632.45 &#9;&#9;&#9;&#9;"/>
      </g>
      <text style="fill: rgb(51, 51, 51); font-family: Arial, sans-serif; font-size: 36.7px; white-space: pre;" x="527.205" y="612.372">marcodotcastro@gmail.com</text>
      <text style="white-space: pre; fill: rgb(51, 51, 51); font-family: Arial, sans-serif; font-size: 36.7px;" x="536.072" y="688.923">FOTO</text>
    </g>
  </g>
  <text style="fill: rgb(51, 51, 51); font-family: &quot;JetBrains Mono&quot;; font-size: 28px; font-weight: 700; paint-order: fill; white-space: pre;">MARCO CASTRO_EVENTO</text>
  <text style="fill: rgb(220, 27, 21); font-family: Arial, sans-serif; font-size: 36.7px; white-space: pre;" x="448.774" y="301.778">DATA_EVENTO</text>
</svg>
